<svg id="Layer_1" data-name="Layer 1" xmlns="http://www.w3.org/2000/svg" viewBox="0 0 642.88 141.54"><defs><style>.cls-1{fill:#fff;}.cls-2{fill:#ed6b52;}</style></defs><circle class="cls-1" cx="134.42" cy="16.58" r="2.39"/><circle class="cls-1" cx="212.81" cy="16.58" r="2.39"/><path class="cls-1" d="M83.48,16.41a3.88,3.88,0,0,1,.9,2.66,3.62,3.62,0,0,1-1.47,3.1,7.33,7.33,0,0,1-4.38,1.09H71.45V7.38h6.62a6.66,6.66,0,0,1,4,1.06,3.49,3.49,0,0,1,1.44,3,3.68,3.68,0,0,1-.71,2.29,4,4,0,0,1-1.94,1.34A4.37,4.37,0,0,1,83.48,16.41Zm-10.87-8v6.33H78a5.44,5.44,0,0,0,3.21-.81,2.71,2.71,0,0,0,1.12-2.37,2.68,2.68,0,0,0-1.12-2.34A5.44,5.44,0,0,0,78,8.38ZM82,21.46A2.78,2.78,0,0,0,83.22,19,2.76,2.76,0,0,0,82,16.5a6.32,6.32,0,0,0-3.5-.79H72.61v6.55h5.92A6.23,6.23,0,0,0,82,21.46Z"/><path class="cls-1" d="M88.61,22.58a5.52,5.52,0,0,1-2.12-2.14,6.63,6.63,0,0,1,0-6.2,5.52,5.52,0,0,1,2.12-2.14,6.35,6.35,0,0,1,6.06,0,5.52,5.52,0,0,1,2.12,2.14,6.17,6.17,0,0,1,.77,3.1,6.17,6.17,0,0,1-.77,3.1,5.52,5.52,0,0,1-2.12,2.14,6.35,6.35,0,0,1-6.06,0Zm5.47-.88a4.59,4.59,0,0,0,1.7-1.77,5.26,5.26,0,0,0,.63-2.59,5.26,5.26,0,0,0-.63-2.59A4.5,4.5,0,0,0,94.08,13a5,5,0,0,0-4.88,0,4.57,4.57,0,0,0-1.7,1.76,5.25,5.25,0,0,0-.62,2.59,5.25,5.25,0,0,0,.62,2.59,4.67,4.67,0,0,0,1.7,1.77,5,5,0,0,0,4.88,0Z"/><path class="cls-1" d="M101.54,22.58a5.66,5.66,0,0,1-2.12-2.14,6.63,6.63,0,0,1,0-6.2,5.66,5.66,0,0,1,2.12-2.14,6.35,6.35,0,0,1,6.06,0,5.52,5.52,0,0,1,2.12,2.14,6.18,6.18,0,0,1,.78,3.1,6.18,6.18,0,0,1-.78,3.1,5.52,5.52,0,0,1-2.12,2.14,6.35,6.35,0,0,1-6.06,0ZM107,21.7a4.59,4.59,0,0,0,1.7-1.77,5.26,5.26,0,0,0,.63-2.59,5.26,5.26,0,0,0-.63-2.59A4.5,4.5,0,0,0,107,13a4.73,4.73,0,0,0-6.58,1.76,5.72,5.72,0,0,0,0,5.18A4.85,4.85,0,0,0,107,21.7Z"/><path class="cls-1" d="M117.1,16.93,114,19.75v3.51h-1.13V6.43H114V18.34l7.58-6.92H123l-5.1,4.79,5.6,7.05h-1.4Z"/><path class="cls-1" d="M150.83,8.42h-5.72v-1H157.7v1H152V23.26h-1.16Z"/><path class="cls-1" d="M161.54,12a5.39,5.39,0,0,1,2.81-.69v1.11l-.27,0A4,4,0,0,0,161,13.65a5,5,0,0,0-1.11,3.44v6.17h-1.13V11.42h1.09V14A4.06,4.06,0,0,1,161.54,12Z"/><path class="cls-1" d="M173.72,12.45a4.34,4.34,0,0,1,1.18,3.3v7.51h-1.09V21.15a4,4,0,0,1-1.65,1.63,5.58,5.58,0,0,1-2.61.57,4.8,4.8,0,0,1-3.12-.93,3.2,3.2,0,0,1-.09-4.84,5.07,5.07,0,0,1,3.37-.92h4.06v-.95a3.31,3.31,0,0,0-.9-2.52,3.62,3.62,0,0,0-2.62-.86,6.16,6.16,0,0,0-2.26.41,5.63,5.63,0,0,0-1.82,1.08L165.6,13a6.39,6.39,0,0,1,2.13-1.24,7.86,7.86,0,0,1,2.61-.44A4.69,4.69,0,0,1,173.72,12.45Zm-1.51,9.29a4.13,4.13,0,0,0,1.56-2V17.55h-4a4,4,0,0,0-2.53.63,2.35,2.35,0,0,0,.08,3.57,3.84,3.84,0,0,0,2.43.67A4.39,4.39,0,0,0,172.21,21.74Z"/><path class="cls-1" d="M180.08,22.58a5.57,5.57,0,0,1-2.14-2.14,6.28,6.28,0,0,1-.77-3.1,6.33,6.33,0,0,1,.77-3.12,5.54,5.54,0,0,1,2.14-2.13,6.14,6.14,0,0,1,3.08-.76,6,6,0,0,1,2.6.55,4.74,4.74,0,0,1,1.89,1.63l-.84.61a4.09,4.09,0,0,0-1.57-1.33,4.91,4.91,0,0,0-2.08-.44,5,5,0,0,0-2.48.62A4.5,4.5,0,0,0,179,14.73a5.41,5.41,0,0,0-.62,2.61A5.41,5.41,0,0,0,179,20a4.44,4.44,0,0,0,1.73,1.76,5,5,0,0,0,2.48.62,4.76,4.76,0,0,0,2.08-.44,4,4,0,0,0,1.57-1.33l.84.62a4.64,4.64,0,0,1-1.89,1.62,6.49,6.49,0,0,1-5.68-.22Z"/><path class="cls-1" d="M193.94,16.93l-3.09,2.82v3.51h-1.13V6.43h1.13V18.34l7.58-6.92h1.45l-5.1,4.79,5.6,7.05H199Z"/><path class="cls-1" d="M236.46,18.79h-9.21l-2,4.47H224l7.31-15.88h1.16l7.3,15.88H238.5Zm-.43-1-4.17-9.17-4.15,9.17Z"/><path class="cls-1" d="M250.44,12.62a5,5,0,0,1,1.29,3.72v6.92H250.6V16.43a4.22,4.22,0,0,0-1-3,3.79,3.79,0,0,0-2.83-1,4.36,4.36,0,0,0-3.29,1.25,4.64,4.64,0,0,0-1.2,3.36v6.3h-1.13V11.42h1.09V14a4.45,4.45,0,0,1,1.82-2,5.63,5.63,0,0,1,2.87-.7A4.77,4.77,0,0,1,250.44,12.62Z"/><path class="cls-1" d="M262.65,12.45a4.37,4.37,0,0,1,1.17,3.3v7.51h-1.08V21.15a4,4,0,0,1-1.66,1.63,5.58,5.58,0,0,1-2.61.57,4.8,4.8,0,0,1-3.12-.93,3.22,3.22,0,0,1-.09-4.84,5.08,5.08,0,0,1,3.37-.92h4.06v-.95a3.31,3.31,0,0,0-.9-2.52,3.6,3.6,0,0,0-2.62-.86,6.11,6.11,0,0,0-2.25.41,5.68,5.68,0,0,0-1.83,1.08l-.57-.81a6.34,6.34,0,0,1,2.14-1.24,7.84,7.84,0,0,1,2.6-.44A4.73,4.73,0,0,1,262.65,12.45Zm-1.51,9.29a4.18,4.18,0,0,0,1.55-2V17.55h-4a4.05,4.05,0,0,0-2.53.63,2.13,2.13,0,0,0-.78,1.75,2.18,2.18,0,0,0,.86,1.82,3.88,3.88,0,0,0,2.43.67A4.43,4.43,0,0,0,261.14,21.74Z"/><path class="cls-1" d="M267.36,6.43h1.14V23.26h-1.14Z"/><path class="cls-1" d="M281.66,11.42l-6.08,13.45A5.35,5.35,0,0,1,274,27.1a3.47,3.47,0,0,1-2.12.66,4,4,0,0,1-1.53-.28,3.26,3.26,0,0,1-1.22-.79l.57-.86a3,3,0,0,0,2.2.93,2.33,2.33,0,0,0,1.48-.48,4.39,4.39,0,0,0,1.13-1.63l.64-1.43-5.34-11.8H271L275.76,22l4.74-10.6Z"/><path class="cls-1" d="M283.13,22.92a5.57,5.57,0,0,1-2-1.09l.53-.9a6.21,6.21,0,0,0,1.87,1,7.1,7.1,0,0,0,2.39.41,4.69,4.69,0,0,0,2.64-.59,1.9,1.9,0,0,0,.86-1.64,1.54,1.54,0,0,0-.47-1.18,2.85,2.85,0,0,0-1.15-.63,17.84,17.84,0,0,0-1.88-.43,15.79,15.79,0,0,1-2.27-.55,3.5,3.5,0,0,1-1.47-.95,2.57,2.57,0,0,1-.62-1.82,2.83,2.83,0,0,1,1.17-2.32,5.3,5.3,0,0,1,3.33-.92,8.19,8.19,0,0,1,2.24.32,5.59,5.59,0,0,1,1.82.84l-.52.9a5.66,5.66,0,0,0-1.66-.79,6.83,6.83,0,0,0-1.91-.27,4.2,4.2,0,0,0-2.49.61,1.91,1.91,0,0,0-.84,1.61,1.61,1.61,0,0,0,.48,1.24,3.06,3.06,0,0,0,1.16.66c.47.14,1.11.29,1.94.46a17.06,17.06,0,0,1,2.24.53,3.4,3.4,0,0,1,1.44.92,2.5,2.5,0,0,1,.59,1.75,2.77,2.77,0,0,1-1.23,2.36,5.77,5.77,0,0,1-3.44.88A8.53,8.53,0,0,1,283.13,22.92Z"/><path class="cls-1" d="M302.58,17.61H292.39a4.94,4.94,0,0,0,.7,2.47,4.52,4.52,0,0,0,1.78,1.66,5.3,5.3,0,0,0,2.53.59,5.42,5.42,0,0,0,2.15-.42,4.18,4.18,0,0,0,1.64-1.23l.66.75a5,5,0,0,1-1.94,1.42,6.75,6.75,0,0,1-5.68-.27,5.49,5.49,0,0,1-2.17-2.13,6.14,6.14,0,0,1-.78-3.11,6.37,6.37,0,0,1,.74-3.1,5.37,5.37,0,0,1,2-2.14,5.59,5.59,0,0,1,2.9-.77,5.52,5.52,0,0,1,2.89.76,5.36,5.36,0,0,1,2,2.12,6.42,6.42,0,0,1,.74,3.09Zm-7.88-4.73a4.3,4.3,0,0,0-1.6,1.57,5.08,5.08,0,0,0-.69,2.28h9.08a4.79,4.79,0,0,0-.68-2.27,4.48,4.48,0,0,0-1.61-1.57,4.84,4.84,0,0,0-4.5,0Z"/><path class="cls-2" d="M378.92,82.83H361.54l25.65-40.12-24-39.17h17l16.31,28.11,17-28.11h17.27L405.43,42.71l25.21,40.12H413.58L396.31,54.19Z"/><path class="cls-2" d="M487.08,52.47a49.81,49.81,0,0,1-.43,6.22H442.23a16.72,16.72,0,0,0,6,9.82q4.56,3.6,11.85,3.59a32.76,32.76,0,0,0,19.21-6l5.58,10a41.36,41.36,0,0,1-25.32,8,36.45,36.45,0,0,1-14.11-2.57,26.28,26.28,0,0,1-9.93-6.92A30,30,0,0,1,429.84,65,33.74,33.74,0,0,1,428,53.65q0-13.3,8.37-21.78,8.48-8.7,21.89-8.69,12.55,0,20.71,7.94T487.08,52.47Zm-28.86-17.6a15.63,15.63,0,0,0-10.36,3.54,17.12,17.12,0,0,0-5.63,9.66h31.12a14.6,14.6,0,0,0-15.13-13.2Z"/><path class="cls-2" d="M508.65,82.83H494.7V24.57h13.73v8.16a16.8,16.8,0,0,1,7.19-7.09,23.44,23.44,0,0,1,11.16-2.57A22.61,22.61,0,0,1,543,29.4q6.66,6.33,6.66,17.92V82.83H535.58V51.18q0-7.18-3.43-11.26a11.56,11.56,0,0,0-9.34-4.08,13.19,13.19,0,0,0-10.19,4.34,16,16,0,0,0-4,11.22Z"/><path class="cls-2" d="M567.23,17.6a8.94,8.94,0,0,1-6.44-2.47,8.42,8.42,0,0,1-2.57-6.33,8.36,8.36,0,0,1,2.63-6.28A8.88,8.88,0,0,1,567.23,0,8.61,8.61,0,0,1,576,8.8a8.49,8.49,0,0,1-2.52,6.33A8.6,8.6,0,0,1,567.23,17.6Zm6.87,7V82.83H560V24.57Z"/><path class="cls-2" d="M629.57,32V24.57h13.31V82.83H629.57V75.65a24.36,24.36,0,0,1-19,8.58q-12.55,0-20.71-8.8t-8.15-22q0-13.2,8.15-21.68a27.56,27.56,0,0,1,20.71-8.58Q621.74,23.18,629.57,32Zm.32,21.67a17.65,17.65,0,0,0-4.82-12.55,17.36,17.36,0,0,0-24.68,0,18.13,18.13,0,0,0-4.72,12.55,18.26,18.26,0,0,0,4.72,12.66,17.36,17.36,0,0,0,24.68,0A17.79,17.79,0,0,0,629.89,53.65Z"/><path class="cls-1" d="M130.08,80.4h-11V34.49h10.82v6.42a13.28,13.28,0,0,1,5.67-5.58,18.39,18.39,0,0,1,8.79-2,17.87,17.87,0,0,1,12.77,5q5.24,5,5.24,14.12v28H151.3V55.46q0-5.67-2.7-8.88a9.13,9.13,0,0,0-7.36-3.21,10.38,10.38,0,0,0-8,3.42,12.57,12.57,0,0,0-3.13,8.83Z"/><path class="cls-1" d="M181.4,80.4h-11V34.49h10.82v6.42a13.28,13.28,0,0,1,5.67-5.58,18.39,18.39,0,0,1,8.79-2,17.87,17.87,0,0,1,12.77,5q5.23,5,5.24,14.12v28H202.62V55.46q0-5.67-2.7-8.88a9.13,9.13,0,0,0-7.36-3.21,10.4,10.4,0,0,0-8,3.42,12.57,12.57,0,0,0-3.13,8.83Z"/><path class="cls-1" d="M265.87,56.47a40.82,40.82,0,0,1-.34,4.9h-35a13.19,13.19,0,0,0,4.7,7.74,14.62,14.62,0,0,0,9.34,2.83,25.74,25.74,0,0,0,15.13-4.73l4.4,7.86a32.52,32.52,0,0,1-19.95,6.34,28.53,28.53,0,0,1-11.12-2,20.58,20.58,0,0,1-7.82-5.45,23.47,23.47,0,0,1-4.44-7.61,26.46,26.46,0,0,1-1.48-8.92q0-10.49,6.59-17.16,6.69-6.85,17.25-6.85,9.9,0,16.32,6.26T265.87,56.47ZM243.12,42.6A12.32,12.32,0,0,0,235,45.39,13.56,13.56,0,0,0,230.52,53H255a11.5,11.5,0,0,0-11.92-10.4Z"/><path class="cls-1" d="M293.68,81.41q-10.56,0-17.5-6.76-6.76-6.77-6.76-17.25t6.85-17.25q6.93-6.76,17.75-6.76a24.83,24.83,0,0,1,12.81,3.34,20.75,20.75,0,0,1,8.5,9.26l-9,4.82q-4.41-7.28-12.18-7.28A13.45,13.45,0,0,0,280.41,57.4a13.76,13.76,0,0,0,3.8,9.89,12.78,12.78,0,0,0,9.64,4,14.22,14.22,0,0,0,7.23-2,13,13,0,0,0,5.12-5.2l9,5.24a22.4,22.4,0,0,1-8.75,8.84A25.25,25.25,0,0,1,293.68,81.41Z"/><path class="cls-1" d="M349.23,69.07l3.47,8.62a22.48,22.48,0,0,1-13.28,3.81q-15.72,0-15.72-17.93V43.79h-7.61v-9.3h7.78V18.25h10.9V34.49h15.39v9.3H334.77V63.15q0,8.28,6.68,8.29A14.82,14.82,0,0,0,349.23,69.07Z"/><path class="cls-1" d="M32.13,80.73q-13.7,0-22.91-8.88T0,48.77Q0,34.57,9.38,25.43A31.7,31.7,0,0,1,32.3,16.21a34.68,34.68,0,0,1,15.51,3.56,29,29,0,0,1,11.38,9.55l-7.87,7.52q-7.6-9.47-18.51-9.46a20.24,20.24,0,0,0-14.89,6.08,21.11,21.11,0,0,0-6,15.31,20.24,20.24,0,0,0,20.8,20.88q11.51,0,18.86-9.47l8,7.27a32.48,32.48,0,0,1-11.75,9.64A34.64,34.64,0,0,1,32.13,80.73Z"/><path class="cls-1" d="M111,55.7v.79a1.77,1.77,0,0,0,0,.23c0,.07,0,.13,0,.2s0,.11,0,.18,0,.24,0,.37,0,.19,0,.28c0,.25,0,.5-.07.74s-.07.56-.1.83-.09.54-.13.82a.19.19,0,0,0,0,.07c0,.2-.07.4-.11.61s0,.21-.07.32-.09.4-.14.6-.13.53-.21.79a2.17,2.17,0,0,1-.07.24A24.85,24.85,0,0,1,97.54,77.9l-.17.08A24.65,24.65,0,0,1,86.7,80.61h-.45a24.8,24.8,0,0,1,0-49.59l.89,0a24.78,24.78,0,0,1,21.69,14.53.69.69,0,0,1,.07.15A24.6,24.6,0,0,1,111,55.7Z"/><path class="cls-2" d="M91.79,52l-.06.34-.13.21-7.71,12a1.26,1.26,0,0,1-.9.65l-.38-.07a1.22,1.22,0,0,1-.63-.93c-.32-1.62-.67-3.22-1-4.83a1.05,1.05,0,0,0-.51-.73l-4.33-2.64a1,1,0,0,1,.32-1.82l9-2.13L90.42,51a1.05,1.05,0,0,1,1.32.8A2.16,2.16,0,0,1,91.79,52Z"/><path class="cls-2" d="M111,56a23.23,23.23,0,0,1-.93,6.54A25.19,25.19,0,0,0,111,56Z"/><g id="_928arE.tif" data-name="928arE.tif"><path class="cls-2" d="M91.79,52l-.06.34-.13.21-7.71,12a1.26,1.26,0,0,1-.9.65l-.38-.07a1.22,1.22,0,0,1-.63-.93c-.32-1.62-.67-3.22-1-4.83a1.05,1.05,0,0,0-.51-.73l-4.33-2.64a1,1,0,0,1,.32-1.82l9-2.13L90.42,51a1.05,1.05,0,0,1,1.32.8A2.16,2.16,0,0,1,91.79,52Z"/></g><path class="cls-2" d="M110.21,49.88a24.07,24.07,0,0,0-1.35-4.14l-.06-.16a24.75,24.75,0,0,0-21.66-14.5A24.78,24.78,0,0,0,73.78,35.8a23.33,23.33,0,0,0-7,8.67,12.58,12.58,0,0,0-1,2.64,10.34,10.34,0,0,0,.57,7.49c2.27,4.45,8.09,6.81,13.81,5.07,0,0-4.88,2.57-6.9,6.44-.17.31-2.19,4.33-.47,8.15a.11.11,0,0,0,0,.07c1.55,3.36,5.1,4.59,6.88,5.13a24.32,24.32,0,0,0,7,1.11h.19A22.35,22.35,0,0,0,97.35,78l.17-.08a26.28,26.28,0,0,0,8.42-7.16l.21-.42A23.81,23.81,0,0,0,110,62.76a2.1,2.1,0,0,0,.06-.24c.21-.76.39-1.53.54-2.32a.17.17,0,0,1,0-.07c0-.27.08-.54.13-.82s.07-.54.1-.82,0-.49.07-.74c0-.09,0-.19,0-.29s0-.36,0-.55,0-.13,0-.19,0-.28,0-.42,0-.21,0-.32V55.7A23.76,23.76,0,0,0,110.21,49.88ZM83.89,64.64a1.23,1.23,0,0,1-.9.65l-.38-.07a1.22,1.22,0,0,1-.63-.94c-.32-1.6-.68-3.21-1-4.82a1.05,1.05,0,0,0-.51-.73l-4.33-2.64a1,1,0,0,1,.32-1.82l9-2.13L90.42,51a1.06,1.06,0,0,1,1.33.79,2.36,2.36,0,0,1,0,.28l-.06.34-.13.21Z"/><path class="cls-1" d="M91.79,52l-.06.34-.13.21-7.71,12a1.26,1.26,0,0,1-.9.65l-.38-.07a1.22,1.22,0,0,1-.63-.93c-.32-1.62-.67-3.22-1-4.83a1.05,1.05,0,0,0-.51-.73l-4.33-2.64a1,1,0,0,1,.32-1.82l9-2.13L90.42,51a1.05,1.05,0,0,1,1.32.8A2.16,2.16,0,0,1,91.79,52Z"/><path class="cls-1" d="M56.89,133.67H51.6l-1.86-5.43H41l-1.94,5.43H33.8l9.56-25.07h4.1Zm-8.58-9.91-2.91-8.34-3,8.34Z"/><path class="cls-1" d="M66.8,108.6h9.26c2.93,0,5.14.81,6.61,2.41a8.24,8.24,0,0,1,2.24,5.87,8,8,0,0,1-2.31,5.83c-1.54,1.54-3.84,2.31-6.92,2.31H71.82v8.65h-5Zm5,11.87h4a3.91,3.91,0,0,0,2.9-1,3.57,3.57,0,0,0,1-2.63,3.5,3.5,0,0,0-1-2.54,3.58,3.58,0,0,0-2.67-1h-4.3Z"/><path class="cls-1" d="M92.3,133.67H87.52V115.18H92.1v2.48a5.45,5.45,0,0,1,5.09-3,6.5,6.5,0,0,1,2.23.41l-.4,4.58a7.61,7.61,0,0,0-2.21-.37,4.13,4.13,0,0,0-3.3,1.4,6.27,6.27,0,0,0-1.21,4.19Z"/><path class="cls-1" d="M99.83,124.41a9.38,9.38,0,0,1,2.78-6.89,10.33,10.33,0,0,1,14.25,0,10,10,0,0,1,0,13.81,10.44,10.44,0,0,1-14.25,0A9.42,9.42,0,0,1,99.83,124.41Zm6.24,3.76a5.11,5.11,0,0,0,7.29,0,5.29,5.29,0,0,0,1.5-3.76,5.19,5.19,0,0,0-1.5-3.73,5.11,5.11,0,0,0-7.29,0,5.13,5.13,0,0,0-1.46,3.73A5.32,5.32,0,0,0,106.07,128.17Z"/><path class="cls-1" d="M136.46,117.32v-9.43h4.78v25.78h-4.68V131.4a7.11,7.11,0,0,1-5.73,2.71,8.61,8.61,0,0,1-6.55-2.75,10.52,10.52,0,0,1,0-13.87,8.71,8.71,0,0,1,6.55-2.78A7.23,7.23,0,0,1,136.46,117.32Zm.24,7.09a5.33,5.33,0,0,0-1.43-3.77,4.77,4.77,0,0,0-3.69-1.56,4.87,4.87,0,0,0-3.73,1.56,5.33,5.33,0,0,0-1.43,3.77,5.48,5.48,0,0,0,1.43,3.83,4.92,4.92,0,0,0,3.73,1.53,4.81,4.81,0,0,0,3.69-1.53A5.48,5.48,0,0,0,136.7,124.41Z"/><path class="cls-1" d="M159.71,131.94a10,10,0,0,1-12.45,0,8.06,8.06,0,0,1-2.25-6V115.18h4.78v10.69a4,4,0,0,0,1,2.81,4,4,0,0,0,5.43,0,3.93,3.93,0,0,0,1-2.81V115.18H162v10.69A8,8,0,0,1,159.71,131.94Z"/><path class="cls-1" d="M174.55,134.08a9.71,9.71,0,0,1-7.06-2.72,10.13,10.13,0,0,1,0-13.9,9.79,9.79,0,0,1,7.15-2.75,10.14,10.14,0,0,1,5.18,1.35,8.39,8.39,0,0,1,3.44,3.8L179.47,122a5.26,5.26,0,0,0-4.72-2.82,5,5,0,0,0-3.76,1.53,5,5,0,0,0-1.49,3.73,5.22,5.22,0,0,0,1.45,3.8,5.05,5.05,0,0,0,3.7,1.49,5.39,5.39,0,0,0,2.78-.78,4.9,4.9,0,0,0,1.94-2l3.86,2.27a8.77,8.77,0,0,1-3.51,3.56A10.28,10.28,0,0,1,174.55,134.08Z"/><path class="cls-1" d="M197.78,128.82l1.43,3.76a9.66,9.66,0,0,1-5.46,1.53,6.08,6.08,0,0,1-4.82-1.85,8,8,0,0,1-1.63-5.44v-7.63h-3v-4h3.06v-6.54h4.74v6.54h6.11v4h-6.11v7.32c0,2.17.87,3.26,2.62,3.26A6.31,6.31,0,0,0,197.78,128.82Z"/><path class="cls-1" d="M208.19,124.41a9.35,9.35,0,0,1,2.79-6.89,10.32,10.32,0,0,1,14.24,0,10,10,0,0,1,0,13.81,10.43,10.43,0,0,1-14.24,0A9.39,9.39,0,0,1,208.19,124.41Zm6.24,3.76a5.12,5.12,0,0,0,7.3,0,5.32,5.32,0,0,0,1.49-3.76,5.22,5.22,0,0,0-1.49-3.73,5.12,5.12,0,0,0-7.3,0,5.12,5.12,0,0,0-1.45,3.73A5.31,5.31,0,0,0,214.43,128.17Z"/><path class="cls-1" d="M240.45,111.32a3.52,3.52,0,0,0-2.54.83,3.12,3.12,0,0,0-.89,2.39v.64h5.74v4H237v14.48h-4.78V119.19h-2.85v-4h2.85v-.74a7,7,0,0,1,2.07-5.46,7.77,7.77,0,0,1,5.43-1.9,10.92,10.92,0,0,1,5.25,1.35l-1.56,3.67A7.65,7.65,0,0,0,240.45,111.32Z"/><path class="cls-1" d="M265.92,108.6h5.8L263,125v8.68h-5V125l-8.58-16.39h5.8l5.29,11Z"/><path class="cls-1" d="M286.08,131.94a10,10,0,0,1-12.44,0,8,8,0,0,1-2.26-6V115.18h4.78v10.69a3.93,3.93,0,0,0,1,2.81,4,4,0,0,0,5.42,0,3.93,3.93,0,0,0,1-2.81V115.18h4.78v10.69A8,8,0,0,1,286.08,131.94Z"/><path class="cls-1" d="M310.11,133.67h-5.86l-6.11-7.9-1.25,1.11v6.79H292.1V107.89h4.79v13.6l6.71-6.31h6l-8.24,7.57Z"/><path class="cls-1" d="M316.32,133.67h-4.78V115.18h4.58v2.48a5.44,5.44,0,0,1,5.08-3,6.51,6.51,0,0,1,2.24.41l-.4,4.58a7.61,7.61,0,0,0-2.21-.37,4.16,4.16,0,0,0-3.31,1.4,6.33,6.33,0,0,0-1.2,4.19Z"/><path class="cls-1" d="M338.91,117.39v-2.21h4.54v18.49h-4.54v-2.14a7.69,7.69,0,0,1-5.9,2.58,8.59,8.59,0,0,1-6.58-2.78,9.88,9.88,0,0,1-2.58-7,9.52,9.52,0,0,1,2.61-6.88,8.62,8.62,0,0,1,6.55-2.75A7.7,7.7,0,0,1,338.91,117.39Zm.07,7a5.33,5.33,0,0,0-1.5-3.77,5.19,5.19,0,0,0-7.42,0,5.68,5.68,0,0,0,0,7.57,5.16,5.16,0,0,0,7.39,0A5.35,5.35,0,0,0,339,124.41Z"/><path class="cls-1" d="M356.07,108.6h9.26c2.94,0,5.14.81,6.61,2.41a8.19,8.19,0,0,1,2.24,5.87,8.06,8.06,0,0,1-2.3,5.83Q369.57,125,365,125h-3.87v8.65h-5Zm5,11.87h4a3.92,3.92,0,0,0,2.9-1,3.56,3.56,0,0,0,1-2.63,3.46,3.46,0,0,0-1-2.54,3.56,3.56,0,0,0-2.66-1h-4.31Z"/><path class="cls-1" d="M381.58,133.67h-4.79V115.18h4.58v2.48a5.46,5.46,0,0,1,5.09-3,6.56,6.56,0,0,1,2.24.41l-.41,4.58a7.55,7.55,0,0,0-2.2-.37,4.13,4.13,0,0,0-3.31,1.4,6.33,6.33,0,0,0-1.2,4.19Z"/><path class="cls-1" d="M389.1,124.41a9.35,9.35,0,0,1,2.79-6.89,10.32,10.32,0,0,1,14.24,0,10,10,0,0,1,0,13.81,10.43,10.43,0,0,1-14.24,0A9.39,9.39,0,0,1,389.1,124.41Zm6.25,3.76A4.84,4.84,0,0,0,399,129.7a4.9,4.9,0,0,0,3.63-1.53,5.32,5.32,0,0,0,1.49-3.76,5.22,5.22,0,0,0-1.49-3.73,4.9,4.9,0,0,0-3.63-1.53,4.84,4.84,0,0,0-3.66,1.53,5.09,5.09,0,0,0-1.46,3.73A5.27,5.27,0,0,0,395.35,128.17Z"/><path class="cls-1" d="M410.44,141.54a7.76,7.76,0,0,1-4.21-.95l.88-3.8a8,8,0,0,0,2.55.54c2.06,0,3.08-1.21,3.08-3.63V115.18h4.79v18.76a7.73,7.73,0,0,1-1.92,5.63A6.9,6.9,0,0,1,410.44,141.54Zm7.63-31.38a3,3,0,1,1-5.9,0,2.75,2.75,0,0,1,.85-2.07,3,3,0,0,1,4.2,0A2.75,2.75,0,0,1,418.07,110.16Z"/><path class="cls-1" d="M439.47,124a16.55,16.55,0,0,1-.17,2.1H425.43q1,3.94,5.39,3.94a10.37,10.37,0,0,0,6-1.87l1.9,3.36a13.42,13.42,0,0,1-8.07,2.55q-4.85,0-7.46-2.82a9.69,9.69,0,0,1-2.58-6.85,9.45,9.45,0,0,1,2.68-7,10.11,10.11,0,0,1,13.6-.24A9,9,0,0,1,439.47,124Zm-9.26-5.32a4.71,4.71,0,0,0-3.07,1,5.07,5.07,0,0,0-1.71,2.83h9.39a4.68,4.68,0,0,0-1.56-2.83A4.54,4.54,0,0,0,430.21,118.68Z"/><path class="cls-1" d="M451.24,134.08a9.67,9.67,0,0,1-7.05-2.72,10.12,10.12,0,0,1,0-13.9,9.8,9.8,0,0,1,7.16-2.75,10.13,10.13,0,0,1,5.17,1.35,8.39,8.39,0,0,1,3.44,3.8L456.16,122a5.25,5.25,0,0,0-4.72-2.82,5,5,0,0,0-3.76,1.53,5,5,0,0,0-1.49,3.73,5.22,5.22,0,0,0,1.45,3.8,5.05,5.05,0,0,0,3.7,1.49,5.39,5.39,0,0,0,2.78-.78,4.9,4.9,0,0,0,1.94-2l3.86,2.27a8.77,8.77,0,0,1-3.51,3.56A10.28,10.28,0,0,1,451.24,134.08Z"/><path class="cls-1" d="M474.47,128.82l1.43,3.76a9.66,9.66,0,0,1-5.46,1.53,6.1,6.1,0,0,1-4.82-1.85,8,8,0,0,1-1.63-5.44v-7.63h-3v-4H464v-6.54h4.74v6.54h6.11v4h-6.11v7.32c0,2.17.87,3.26,2.62,3.26A6.31,6.31,0,0,0,474.47,128.82Z"/><path class="cls-1" d="M484,134.14a9.2,9.2,0,0,1-7.63-3.56l2.55-3a7.43,7.43,0,0,0,2.35,1.89,6.13,6.13,0,0,0,2.77.69,3.09,3.09,0,0,0,1.81-.51,1.52,1.52,0,0,0,.73-1.29q0-1-1.32-1.59c-.27-.11-1-.4-2.21-.85a20.44,20.44,0,0,1-2.37-1,5.18,5.18,0,0,1-1.29-8.79,7.58,7.58,0,0,1,5-1.56,8.59,8.59,0,0,1,6.48,2.65l-2.38,3.08a6.05,6.05,0,0,0-4.24-1.83,2.44,2.44,0,0,0-1.51.46,1.37,1.37,0,0,0-.59,1.1c0,.77.54,1.34,1.63,1.7a46.12,46.12,0,0,1,4.44,1.8,5.08,5.08,0,0,1,3.12,4.68,5.28,5.28,0,0,1-2,4.27A8,8,0,0,1,484,134.14Z"/><path class="cls-1" d="M503,108.6h9.26c2.94,0,5.14.81,6.62,2.41a8.23,8.23,0,0,1,2.23,5.87,8.06,8.06,0,0,1-2.3,5.83q-2.31,2.31-6.92,2.31H508v8.65h-5Zm5,11.87h4a3.92,3.92,0,0,0,2.9-1,3.56,3.56,0,0,0,1-2.63,3.46,3.46,0,0,0-1-2.54,3.56,3.56,0,0,0-2.66-1H508Z"/><path class="cls-1" d="M531.69,127.16l4.54-12h5.26l-8,18.45h-3.66l-8-18.45H527Z"/><path class="cls-1" d="M555.5,128.82l1.42,3.76a9.61,9.61,0,0,1-5.46,1.53,6.07,6.07,0,0,1-4.81-1.85,8,8,0,0,1-1.63-5.44v-7.63h-3v-4h3v-6.54h4.75v6.54h6.11v4H549.8v7.32c0,2.17.87,3.26,2.61,3.26A6.34,6.34,0,0,0,555.5,128.82Z"/><path class="cls-1" d="M585.28,133.67H567.5V108.6h5.06v20.25h12.72Z"/><path class="cls-1" d="M598.23,128.82l1.43,3.76a9.66,9.66,0,0,1-5.46,1.53,6.1,6.1,0,0,1-4.82-1.85,8,8,0,0,1-1.63-5.44v-7.63h-3v-4h3.06v-6.54h4.74v6.54h6.11v4h-6.11v7.32c0,2.17.88,3.26,2.62,3.26A6.28,6.28,0,0,0,598.23,128.82Z"/><path class="cls-1" d="M615.12,117.32v-9.43h4.79v25.78h-4.68V131.4a7.15,7.15,0,0,1-5.74,2.71,8.59,8.59,0,0,1-6.54-2.75,10.52,10.52,0,0,1,0-13.87,8.67,8.67,0,0,1,6.54-2.78A7.22,7.22,0,0,1,615.12,117.32Zm.24,7.09a5.33,5.33,0,0,0-1.42-3.77,4.79,4.79,0,0,0-3.7-1.56,4.87,4.87,0,0,0-3.73,1.56,5.33,5.33,0,0,0-1.43,3.77,5.48,5.48,0,0,0,1.43,3.83,4.92,4.92,0,0,0,3.73,1.53,4.83,4.83,0,0,0,3.7-1.53A5.47,5.47,0,0,0,615.36,124.41Z"/></svg>