<svg xmlns="http://www.w3.org/2000/svg" xmlns:xlink="http://www.w3.org/1999/xlink" id="Layer_1" x="0px" y="0px" viewBox="0 0 818.5 162.2" style="enable-background:new 0 0 818.5 162.2;" xml:space="preserve"><style type="text/css">	.st0{fill:#F16B52;}	.st1{fill:#252947;}	.st2{fill:#FFFFFF;}</style><circle cx="171.1" cy="21.1" r="3.1"></circle><circle cx="271" cy="21.1" r="3"></circle><path d="M106.3,20.9c-0.9-0.9-2-1.5-3.3-1.7c1-0.3,1.8-0.9,2.5-1.7c0.6-0.8,0.9-1.9,0.9-2.9c0.1-1.5-0.6-2.9-1.8-3.8 c-1.5-1-3.3-1.4-5.1-1.3H91v20.2h9c2,0.1,3.9-0.3,5.6-1.4c1.3-0.9,2-2.4,1.9-4C107.5,23,107.1,21.8,106.3,20.9z M92.4,10.7h6.9 c1.4-0.1,2.9,0.3,4.1,1c1,0.7,1.5,1.8,1.4,3c0.1,1.2-0.5,2.3-1.4,3c-1.2,0.8-2.7,1.1-4.1,1h-6.9L92.4,10.7z M104.4,27.3 c-1.4,0.8-2.9,1.1-4.5,1h-7.5V20h7.6c1.6-0.1,3.1,0.2,4.5,1c1,0.7,1.6,1.9,1.5,3.2C106.1,25.4,105.5,26.6,104.4,27.3z"></path><path d="M123.2,18.1c-0.6-1.1-1.6-2.1-2.7-2.7c-2.4-1.3-5.3-1.3-7.7,0c-1.1,0.6-2.1,1.6-2.7,2.7c-0.7,1.2-1,2.6-1,3.9 c0,1.4,0.3,2.7,1,3.9c0.6,1.1,1.6,2.1,2.7,2.7c2.4,1.3,5.3,1.3,7.7,0c1.1-0.6,2.1-1.6,2.7-2.7c0.7-1.2,1-2.6,1-3.9 C124.3,20.7,123.9,19.3,123.2,18.1z M122,25.4c-0.5,0.9-1.3,1.7-2.2,2.3c-1.9,1.1-4.3,1.1-6.2,0c-0.9-0.5-1.7-1.3-2.2-2.3 c-0.5-1-0.8-2.1-0.8-3.3c0-1.1,0.2-2.3,0.8-3.3c0.5-0.9,1.3-1.7,2.2-2.3c1.9-1.1,4.3-1.1,6.2,0c0.9,0.5,1.7,1.3,2.2,2.3 C123.1,20.9,123.1,23.3,122,25.4z"></path><path d="M139.7,18.1c-0.6-1.1-1.6-2.1-2.7-2.7c-2.4-1.3-5.3-1.3-7.7,0c-1.1,0.6-2.1,1.6-2.7,2.7c-0.7,1.2-1,2.6-1,3.9 c0,1.4,0.3,2.7,1,3.9c0.6,1.1,1.6,2.1,2.7,2.7c2.4,1.3,5.3,1.3,7.7,0c1.1-0.6,2.1-1.6,2.7-2.8c0.7-1.2,1-2.6,1-3.9 C140.7,20.7,140.4,19.3,139.7,18.1z M138.4,25.4c-0.5,0.9-1.3,1.7-2.2,2.3c-1.9,1.1-4.3,1.1-6.2,0c-0.9-0.5-1.7-1.3-2.2-2.3 c-0.5-1-0.8-2.1-0.8-3.3c0-1.1,0.3-2.3,0.8-3.3c0.5-0.9,1.2-1.7,2.1-2.3c1.9-1.1,4.3-1.1,6.2,0c0.9,0.5,1.7,1.3,2.2,2.3 c0.5,1,0.8,2.1,0.8,3.3C139.2,23.2,138.9,24.4,138.4,25.4L138.4,25.4z"></path><path d="M150.2,20.6l6.5-6.1h-1.9l-9.6,8.8V8.2h-1.4v21.4h1.4v-4.5l3.9-3.6l6.4,8.1h1.8L150.2,20.6z"></path><path d="M184.8,9.4v1.3h7.2v18.9h1.5V10.7h7.3V9.4H184.8z"></path><path d="M205.7,15.3c-1,0.6-1.7,1.5-2.2,2.5v-3.3h-1.4v15.1h1.4v-7.9c-0.1-1.6,0.4-3.2,1.4-4.4c1-1.1,2.5-1.7,3.9-1.6h0.4v-1.4 C208,14.4,206.8,14.7,205.7,15.3z"></path><path d="M221.2,15.9c-1.2-1-2.7-1.5-4.3-1.4c-1.1,0-2.3,0.2-3.3,0.6c-1,0.3-1.9,0.9-2.7,1.6l0.7,1c0.7-0.6,1.5-1.1,2.3-1.4 c0.9-0.3,1.9-0.5,2.9-0.5c1.2-0.1,2.4,0.3,3.3,1.1c0.8,0.9,1.2,2.1,1.1,3.2v1.2h-5.2c-1.5-0.1-3,0.3-4.3,1.2 c-1.7,1.5-1.8,4.1-0.3,5.8c0.1,0.1,0.3,0.3,0.4,0.4c1.2,0.8,2.6,1.3,4,1.2c1.1,0,2.3-0.2,3.3-0.7c0.9-0.5,1.6-1.2,2.1-2.1v2.7h1.4 v-9.6C222.8,18.5,222.3,17,221.2,15.9z M221.2,25.2c-0.4,1-1.1,1.9-2,2.5c-1,0.6-2.1,0.9-3.2,0.9c-1.1,0.1-2.2-0.2-3.1-0.9 c-0.7-0.5-1.1-1.4-1.1-2.3c0-0.9,0.3-1.7,1-2.2c1-0.6,2.1-0.9,3.2-0.8h5.1L221.2,25.2z"></path><path d="M235.9,27.9c-0.8,0.4-1.7,0.6-2.6,0.6c-1.1,0-2.2-0.3-3.2-0.8c-0.9-0.5-1.7-1.3-2.2-2.2c-0.5-1-0.8-2.2-0.8-3.3 c0-1.2,0.3-2.3,0.8-3.3c0.5-0.9,1.2-1.7,2.1-2.2c1-0.5,2.1-0.8,3.2-0.8c0.9,0,1.8,0.2,2.6,0.6c0.8,0.4,1.5,1,2,1.7l1.1-0.8 c-0.6-0.9-1.4-1.6-2.4-2.1c-1-0.5-2.2-0.7-3.3-0.7c-1.4,0-2.7,0.3-3.9,1c-1.1,0.6-2.1,1.6-2.7,2.7c-0.7,1.2-1,2.6-1,4 c0,1.4,0.3,2.7,1,3.9c0.6,1.1,1.6,2.1,2.7,2.7c2.2,1.2,4.9,1.3,7.2,0.3c1-0.5,1.8-1.2,2.5-2.1l-1.1-0.8 C237.3,26.9,236.7,27.5,235.9,27.9z"></path><path d="M248,20.6l6.5-6.1h-1.9l-9.6,8.8V8.2h-1.4v21.4h1.4v-4.5l3.9-3.6l6.4,8.1h1.8L248,20.6z"></path><path d="M296,9.4h-1.5l-9.3,20.2h1.6l2.6-5.7h11.7l2.6,5.7h1.6L296,9.4z M290,22.7l5.2-11.7l5.3,11.7L290,22.7z"></path><path d="M318.9,16.1c-1.2-1.1-2.8-1.7-4.5-1.6c-1.3,0-2.5,0.3-3.6,0.9c-1,0.6-1.8,1.4-2.3,2.5v-3.3H307v15.1h1.5v-8 c-0.1-1.6,0.5-3.1,1.5-4.3c1.1-1.1,2.6-1.7,4.2-1.6c1.3-0.1,2.6,0.4,3.6,1.3c0.9,1.1,1.4,2.5,1.3,3.9v8.7h1.4v-8.8 C320.6,19.1,320,17.4,318.9,16.1z"></path><path d="M334.4,15.9c-1.2-1-2.7-1.5-4.3-1.4c-1.1,0-2.3,0.2-3.3,0.6c-1,0.3-1.9,0.9-2.7,1.6l0.7,1c0.7-0.6,1.5-1.1,2.3-1.4 c0.9-0.3,1.9-0.5,2.9-0.5c1.2-0.1,2.4,0.3,3.3,1.1c0.8,0.9,1.2,2.1,1.1,3.2v1.2h-5.2c-1.5-0.1-3.1,0.3-4.3,1.2 c-1.7,1.5-1.8,4.1-0.3,5.8c0.1,0.1,0.3,0.3,0.4,0.4c1.2,0.8,2.6,1.3,4,1.2c1.1,0,2.3-0.2,3.3-0.7c0.9-0.5,1.6-1.2,2.1-2.1v2.7h1.4 v-9.6C336,18.5,335.5,17,334.4,15.9z M334.5,25.2c-0.4,1-1.1,1.9-2,2.5c-1,0.6-2.1,0.9-3.2,0.9c-1.1,0.1-2.2-0.2-3.1-0.9 c-0.7-0.6-1.1-1.4-1.1-2.3c0-0.9,0.3-1.7,1-2.2c1-0.6,2.1-0.9,3.2-0.8h5.1L334.5,25.2z"></path><path d="M340.4,8.2v21.4h1.4V8.2H340.4z"></path><path d="M357.1,14.5l-6,13.5l-6-13.5h-1.5l6.8,15l-0.8,1.8c-0.3,0.8-0.8,1.5-1.5,2.1c-0.5,0.4-1.2,0.6-1.9,0.6 c-1.1,0-2.1-0.4-2.8-1.2l-0.7,1.1c0.4,0.4,1,0.8,1.5,1c0.6,0.2,1.3,0.4,2,0.3c1,0,1.9-0.3,2.7-0.8c0.9-0.8,1.6-1.7,2-2.8l7.8-17.1 L357.1,14.5z"></path><path d="M369.2,23.4c-0.5-0.5-1.1-0.9-1.8-1.2c-0.9-0.3-1.9-0.5-2.9-0.7c-1.1-0.2-1.9-0.4-2.5-0.6c-0.6-0.2-1.1-0.5-1.5-0.8 c-0.4-0.4-0.6-1-0.6-1.6c0-0.8,0.4-1.6,1.1-2.1c1-0.6,2.1-0.9,3.2-0.8c0.8,0,1.6,0.1,2.4,0.3c0.8,0.2,1.5,0.6,2.1,1l0.7-1.1 c-0.7-0.5-1.5-0.9-2.3-1.1c-0.9-0.3-1.9-0.4-2.9-0.4c-1.5-0.1-3,0.3-4.2,1.2c-1,0.7-1.5,1.8-1.5,3c-0.1,0.8,0.2,1.7,0.8,2.3 c0.5,0.6,1.2,1,1.9,1.2c0.9,0.3,1.9,0.5,2.9,0.7c1,0.2,1.8,0.4,2.4,0.5c0.5,0.2,1,0.4,1.5,0.8c0.4,0.4,0.6,0.9,0.6,1.5 c0,0.8-0.4,1.6-1.1,2.1c-1,0.6-2.2,0.8-3.4,0.8c-1,0-2-0.2-3-0.5c-0.9-0.3-1.7-0.7-2.4-1.3l-0.7,1.2c0.8,0.6,1.6,1.1,2.6,1.4 c1.1,0.4,2.3,0.6,3.5,0.5c1.5,0.1,3.1-0.3,4.4-1.1c1-0.7,1.6-1.8,1.6-3C370,24.8,369.7,24,369.2,23.4z"></path><path d="M385.3,22c0-1.4-0.3-2.7-0.9-3.9c-0.6-1.1-1.5-2-2.6-2.7c-1.1-0.7-2.4-1-3.7-1c-1.3,0-2.6,0.3-3.7,1c-1.1,0.7-2,1.6-2.6,2.7 c-0.6,1.2-1,2.6-0.9,3.9c0,1.4,0.3,2.8,1,4c0.6,1.1,1.6,2.1,2.8,2.7c1.2,0.7,2.6,1,4,1c1.1,0,2.2-0.2,3.2-0.6c1-0.4,1.8-1,2.5-1.8 l-0.8-1c-0.6,0.7-1.3,1.2-2.1,1.6c-0.9,0.4-1.8,0.5-2.7,0.5c-1.1,0-2.2-0.2-3.2-0.8c-0.9-0.5-1.7-1.2-2.3-2.1c-0.6-1-0.9-2-0.9-3.1 h13L385.3,22z M372.3,21.3c0.1-1,0.4-2,0.9-2.9c0.5-0.8,1.2-1.5,2-2c1.8-1,3.9-1,5.7,0c0.8,0.5,1.5,1.2,2,2c0.5,0.9,0.8,1.9,0.9,2.9 L372.3,21.3z"></path><path class="st0" d="M548.3,4.5h-22l-21.6,35.8L484,4.5h-21.6L493,54.4l-32.6,51.1h22.1L504.6,69l22,36.5h21.7l-32.1-51.1L548.3,4.5 z"></path><path class="st0" d="M620.2,66.8c0-11.5-3.5-20.5-10.4-27.2c-6.9-6.7-15.7-10-26.4-10.1c-11.4,0-20.7,3.7-27.9,11.1 c-7.1,7.2-10.7,16.4-10.7,27.7c0,4.9,0.8,9.8,2.4,14.4c1.6,4.5,4,8.7,7.2,12.3c3.5,3.9,7.8,6.9,12.6,8.8c5.7,2.3,11.8,3.4,18,3.3 c12.3,0,23-3.4,32.2-10.2l-7.1-12.7c-7.1,5.1-15.7,7.7-24.5,7.7c-6.2,0-11.2-1.5-15.1-4.6c-3.9-3.1-6.6-7.6-7.6-12.5h56.6 C620,72.1,620.2,69.4,620.2,66.8z M563.1,61.2c0.9-4.8,3.5-9.1,7.2-12.3c3.7-3,8.4-4.6,13.2-4.5c9.9-0.4,18.3,7,19.3,16.8 L563.1,61.2z"></path><path class="st0" d="M691.3,37.4c-5.5-5.3-13-8.2-20.6-8.1c-4.9-0.1-9.8,1-14.2,3.3c-3.9,2-7.1,5.1-9.2,9V31.3h-17.5v74.2h17.8v-40 c0-5.8,1.7-10.6,5.1-14.3c3.3-3.7,8.1-5.7,13-5.5c5,0,9,1.7,11.9,5.2s4.4,8.2,4.4,14.3v40.3h17.9V60.2 C699.8,50.4,697,42.8,691.3,37.4z"></path><path class="st0" d="M730.2,3.2c-2.1-2.1-5-3.3-8-3.2c-3-0.1-6,1.1-8.1,3.2c-2.2,2.1-3.4,5-3.3,8c-0.1,3,1.1,6,3.3,8.1 c2.2,2.1,5.2,3.2,8.2,3.1c3,0.1,5.9-1.1,8-3.1c2.2-2.1,3.3-5,3.2-8.1C733.5,8.2,732.3,5.3,730.2,3.2z M713.1,31.3v74.2H731V31.3 H713.1z"></path><path class="st0" d="M801.6,31.3v9.4c-6.7-7.5-14.7-11.2-24.2-11.2c-10.6,0-19.4,3.6-26.4,10.9S740.6,56.9,740.7,68 c0,11.2,3.5,20.5,10.4,28c6.9,7.5,15.7,11.2,26.4,11.2c9.3,0.2,18.2-3.8,24.2-10.9v9.2h16.9V31.3H801.6z M795.9,84.4 c-8.6,8.7-22.6,8.7-31.3,0.1c0,0-0.1-0.1-0.1-0.1c-4-4.4-6.1-10.2-6-16.1c-0.1-5.9,2-11.6,6-16c8.6-8.7,22.6-8.8,31.2-0.2 c0.1,0.1,0.1,0.1,0.2,0.2c4.1,4.3,6.3,10.1,6.2,16C802.2,74.3,799.9,80.1,795.9,84.4L795.9,84.4z"></path><path class="st1" d="M200.1,48.8c-4.4-4.2-10.2-6.5-16.2-6.3c-3.9-0.1-7.7,0.8-11.2,2.6c-3.1,1.6-5.6,4-7.2,7.1v-8.2h-13.8v58.5h14 V70.8c-0.2-4.1,1.3-8.2,4-11.2c2.6-2.9,6.3-4.5,10.2-4.4c3.6-0.2,7,1.4,9.4,4.1c2.3,2.7,3.4,6.5,3.4,11.3v31.8h14.1V66.7 C206.8,59,204.5,53,200.1,48.8z"></path><path class="st1" d="M265.4,48.8c-4.4-4.2-10.2-6.5-16.3-6.3c-3.9-0.1-7.7,0.8-11.2,2.6c-3.1,1.6-5.6,4.1-7.2,7.1v-8.2H217v58.5h14 V70.8c-0.2-4.1,1.3-8.2,4-11.2c2.6-2.9,6.3-4.5,10.2-4.4c3.6-0.2,7,1.4,9.4,4.1c2.3,2.7,3.4,6.5,3.4,11.3v31.8h14.1V66.7 C272.1,59,269.9,53,265.4,48.8z"></path><path class="st1" d="M338.5,71.9c0-9-2.7-16.2-8.2-21.4s-12.4-7.9-20.8-8c-9,0-16.3,2.9-22,8.7c-5.6,5.7-8.4,13-8.4,21.8 c0,3.9,0.6,7.7,1.9,11.4c1.3,3.6,3.2,6.8,5.6,9.7c2.7,3.1,6.2,5.4,10,6.9c4.5,1.8,9.3,2.7,14.1,2.6c9.1,0.2,18.1-2.7,25.4-8.1 l-5.6-10c-5.6,4-12.4,6.1-19.3,6c-4.9,0-8.8-1.2-11.9-3.6c-3.1-2.5-5.2-6-6-9.8h44.6C338.3,76,338.5,74,338.5,71.9z M293.5,67.5 c0.7-3.8,2.7-7.2,5.6-9.7c2.9-2.4,6.6-3.7,10.4-3.6c3.7-0.1,7.3,1.2,10.2,3.6c2.8,2.5,4.6,5.9,5,9.7H293.5z"></path><path class="st1" d="M383.4,88.2c-2.8,1.7-6,2.5-9.2,2.5c-4.6,0.1-9.1-1.7-12.3-5.1c-3.2-3.4-5-7.9-4.9-12.6 c-0.3-9.4,7.1-17.3,16.6-17.6c0.3,0,0.7,0,1,0c6.6,0,11.8,3.1,15.5,9.3l11.4-6.1c-2.3-4.9-6.1-9.1-10.8-11.8 c-5-2.9-10.6-4.3-16.3-4.2c-9.2,0-16.7,2.9-22.6,8.6s-8.8,13.1-8.7,22c0,8.9,2.9,16.2,8.6,22c5.9,5.8,13.3,8.6,22.3,8.6 c5.7,0.1,11.3-1.4,16.2-4.2c4.7-2.6,8.6-6.5,11.1-11.2l-11.4-6.7C388.3,84.4,386.1,86.7,383.4,88.2z"></path><path class="st1" d="M444.6,87.9c-3,1.9-6.4,2.9-9.9,3c-5.7,0-8.5-3.5-8.5-10.6V55.8h19.6V43.9h-19.6V23.2h-13.9v20.7h-9.9v11.8h9.7 v25.2c0,15.2,6.7,22.8,20,22.8c6.7,0,12.3-1.6,16.9-4.8L444.6,87.9z"></path><path class="st1" d="M65.7,76.6c-6.2,8-14.2,12.1-24,12.1c-7.6,0-13.9-2.5-18.9-7.5s-7.5-11.4-7.5-19c-0.2-7.3,2.5-14.3,7.6-19.5 c5-5.1,11.8-7.9,18.9-7.8c9.3,0,17.1,4,23.6,12.1l10-9.6c-3.7-5.2-8.7-9.4-14.5-12.2c-6.1-3-12.9-4.6-19.8-4.5 C30.2,20.5,19.7,24.7,12,32.4C4,40.1,0,50,0,62.1s3.9,21.9,11.7,29.4c7.8,7.5,17.5,11.3,29.2,11.3c6.9,0.1,13.8-1.5,20-4.6 c5.9-2.8,11-7.1,15-12.3L65.7,76.6z"></path><path class="st2" d="M140.6,78c0-0.1,0-0.1,0-0.2c0-0.1,0.1-0.2,0.1-0.3l0,0c0,0,0,0,0-0.1c0-0.1,0.1-0.2,0.1-0.4v-0.2 C140.7,77.2,140.6,77.6,140.6,78z M141.2,73.3c0-0.1,0-0.1,0-0.2c0-0.2,0-0.5,0-0.7v-0.1C141.3,72.7,141.3,73,141.2,73.3z  M141.3,71.8L141.3,71.8c0,0.2,0,0.3,0,0.4l0,0l0,0C141.3,72.1,141.3,72,141.3,71.8L141.3,71.8z"></path><path class="st0" d="M140.7,77.5c0-0.2,0.1-0.3,0.1-0.5C140.8,77.2,140.7,77.3,140.7,77.5c0,0,0,0.2-0.1,0.3 C140.6,77.7,140.6,77.6,140.7,77.5z"></path><path class="st0" d="M141.1,74.5c0,0.3-0.1,0.7-0.1,1c0,0.1,0,0.2-0.1,0.3C141,75.4,141.1,74.9,141.1,74.5z"></path><path class="st0" d="M140.9,76c0,0.2-0.1,0.4-0.1,0.5c0,0,0,0.1,0,0.1C140.9,76.4,140.9,76.2,140.9,76z"></path><path class="st0" d="M141.2,73.3c0-0.3,0.1-0.7,0.1-1v0.1c0,0.2,0,0.5,0,0.7C141.3,73.2,141.3,73.3,141.2,73.3z"></path><path class="st0" d="M141.3,72.2c0,0.1,0,0.1,0,0.2V72.2L141.3,72.2z"></path><path class="st0" d="M141.3,71.8c0,0.1,0,0.2,0,0.3V71.8L141.3,71.8z"></path><path class="st1" d="M110.4,102.6h0.2c4.7,0,9.2-1.1,13.4-3.3C119.8,101.4,115.1,102.5,110.4,102.6z M141.2,73.3c0-0.1,0-0.1,0-0.2 c0-0.2,0-0.5,0-0.7v-0.1C141.3,72.7,141.3,73,141.2,73.3z"></path><path class="st0" d="M138.6,58.2c0-0.1,0-0.1-0.1-0.2c-4.9-10.9-15.6-18-27.5-18.5c-6.1,0.3-12,2.4-17,6c-3.8,2.9-6.8,6.7-8.9,11 c-0.6,1.1-1,2.2-1.4,3.4c-1,3.2-0.7,6.6,0.7,9.5c2.9,5.7,10.3,8.7,17.6,6.5c-0.4,0.2-6.3,3.4-8.8,8.2c-0.2,0.4-2.8,5.5-0.6,10.4v0.1 c2,4.3,6.5,5.8,8.8,6.5c7.5,2.4,15.6,1.7,22.6-2l0.2-0.1l0.6-0.3c7.4-4,12.9-10.8,15.2-18.9c0-0.1,0.1-0.2,0.1-0.3 c0-0.1,0.1-0.2,0.1-0.3c0.1-0.4,0.2-0.8,0.3-1.2V78c0.1-0.4,0.2-0.8,0.2-1.2c0-0.1,0-0.1,0-0.2c0-0.2,0.1-0.4,0.1-0.6v-0.2 c0.1-0.4,0.1-0.9,0.2-1.4l0.1-0.9c0,0,0-0.1,0-0.1v-0.1c0-0.3,0.1-0.7,0.1-1v-0.2c0-0.1,0-0.2,0-0.3v-0.1l0,0v-0.1 c0-0.1,0-0.3,0-0.4v-0.4C141.2,66.5,140.3,62.2,138.6,58.2z M116.8,66.7c-0.1,0.1-0.1,0.2-0.2,0.3c-3.3,5.1-6.5,10.2-9.8,15.3 c-0.2,0.4-0.7,0.7-1.2,0.8l-0.5-0.1c-0.1,0-0.1-0.1-0.2-0.1c-0.1,0-0.1-0.1-0.2-0.2c0,0-0.1-0.1-0.1-0.1c-0.1-0.1-0.1-0.2-0.2-0.2 c-0.1-0.1-0.1-0.2-0.1-0.3c0-0.1,0-0.1-0.1-0.2l-0.6-3.1l-0.4-2.1c-0.1-0.3-0.1-0.6-0.2-1c0,0,0,0,0-0.1c0,0,0,0,0-0.1 c0-0.1-0.1-0.2-0.1-0.3c0,0-0.1-0.1-0.1-0.1c0-0.1-0.1-0.1-0.1-0.2c-0.1-0.1-0.2-0.1-0.2-0.2L97,71.4c-0.1-0.1-0.2-0.1-0.3-0.2 c-0.1-0.1-0.2-0.2-0.3-0.4c0-0.1-0.1-0.1-0.1-0.2c0-0.2,0-0.4,0-0.6c0.1-0.5,0.5-0.9,1-0.9l8.6-2l2.9-0.7l1.6-0.4l4.7-1.1 c0.2-0.1,0.5-0.1,0.7,0c0.1,0,0.1,0,0.2,0h0.1c0.2,0.1,0.4,0.3,0.5,0.5c0.1,0.1,0.1,0.3,0.2,0.4v0.3c0,0,0,0,0,0.1 S116.8,66.6,116.8,66.7z"></path><g>	<path class="st1" d="M187.6,143l-2.2-5.5h-8l-2.2,5.5h-2.9l8.5-20.8h1.2l8.4,20.8H187.6z M181.4,127l-3.1,8h6.2L181.4,127z"></path>	<path class="st1" d="M212.4,129.9c1.4,1.5,2.2,3.4,2.2,5.6s-0.7,4.1-2.2,5.6c-1.4,1.5-3.2,2.3-5.4,2.3c-2.3,0-4.1-0.9-5.4-2.6v8.4  h-2.5v-21.2h2.5v2.3c1.4-1.8,3.2-2.7,5.5-2.7C209.2,127.6,211,128.3,212.4,129.9z M210.6,139.4c1-1.1,1.5-2.4,1.5-4  c0-1.5-0.5-2.9-1.5-3.9c-1-1.1-2.3-1.6-3.8-1.6c-1.6,0-2.9,0.5-3.9,1.6c-1,1.1-1.4,2.4-1.4,3.9c0,1.6,0.5,2.9,1.4,4  c1,1.1,2.3,1.6,3.9,1.6C208.4,141,209.6,140.5,210.6,139.4z"></path>	<path class="st1" d="M217.9,143v-15.1h2.4v2.3c0.9-1.8,2.3-2.6,4.4-2.6c0.6,0,1.2,0.1,1.7,0.2l-0.2,2.4c-0.5-0.2-1.1-0.3-1.5-0.3  c-2.4,0-4.2,1.7-4.2,4.9v8.1H217.9z"></path>	<path class="st1" d="M229.2,129.9c1.5-1.5,3.4-2.3,5.7-2.3c2.3,0,4.1,0.8,5.6,2.3c1.5,1.5,2.3,3.4,2.3,5.6c0,2.2-0.7,4.1-2.2,5.6  s-3.4,2.3-5.7,2.3c-2.3,0-4.2-0.8-5.7-2.3c-1.5-1.5-2.2-3.4-2.2-5.6C227,133.2,227.8,131.4,229.2,129.9z M238.7,131.5  c-1-1.1-2.3-1.7-3.8-1.7s-2.8,0.6-3.8,1.7c-1,1.1-1.5,2.4-1.5,3.9c0,1.5,0.5,2.9,1.5,4s2.3,1.6,3.8,1.6s2.8-0.5,3.8-1.6  c1-1.1,1.5-2.4,1.5-4C240.3,133.9,239.7,132.6,238.7,131.5z"></path>	<path class="st1" d="M258.1,121.7h2.5V143h-2.5v-2.1c-1.3,1.7-3.1,2.5-5.3,2.5c-2.2,0-4-0.8-5.5-2.3c-1.4-1.5-2.1-3.4-2.1-5.6  c0-2.2,0.7-4.1,2.2-5.6c1.4-1.5,3.2-2.3,5.4-2.3c2.2,0,4,0.9,5.4,2.6V121.7z M256.8,131.5c-1-1.1-2.3-1.6-3.8-1.6s-2.8,0.5-3.8,1.6  c-1,1.1-1.5,2.4-1.5,3.9c0,1.6,0.5,2.9,1.5,4c1,1.1,2.3,1.6,3.8,1.6s2.8-0.5,3.8-1.6c1-1.1,1.5-2.4,1.5-4  C258.3,133.9,257.8,132.6,256.8,131.5z"></path>	<path class="st1" d="M266.4,141.6c-1.2-1.2-1.7-2.7-1.7-4.7v-9h2.5v8.9c0,2.6,1.4,4.1,3.9,4.1s3.9-1.6,3.9-4.1v-8.9h2.5v9  c0,3.9-2.4,6.4-6.4,6.4C269.1,143.3,267.5,142.8,266.4,141.6z"></path>	<path class="st1" d="M282.8,141.1c-1.5-1.5-2.2-3.4-2.2-5.7c0-2.3,0.8-4.2,2.3-5.7c1.5-1.5,3.5-2.2,5.8-2.2c3,0,5.7,1.5,6.8,3.9  l-2.1,1.2c-1-1.7-2.8-2.8-4.7-2.8c-1.6,0-2.9,0.5-4,1.6c-1,1.1-1.6,2.4-1.6,4c0,1.6,0.5,2.9,1.5,4c1,1,2.3,1.6,3.9,1.6  c1,0,1.9-0.3,2.8-0.8c0.9-0.5,1.6-1.2,2-2l2.1,1.2c-1.2,2.3-3.9,3.9-6.9,3.9C286.1,143.3,284.2,142.6,282.8,141.1z"></path>	<path class="st1" d="M308,142.1c-1.1,0.8-2.4,1.3-3.9,1.3c-3.2,0-4.8-2-4.8-5.6v-7.7h-2.7v-2.2h2.7v-5.3h2.5v5.3h5.4v2.2h-5.4v7.9  c0,2,0.8,3,2.5,3c0.9,0,1.8-0.3,2.7-0.9L308,142.1z"></path>	<path class="st1" d="M318.4,129.9c1.5-1.5,3.4-2.3,5.7-2.3c2.3,0,4.1,0.8,5.6,2.3c1.5,1.5,2.3,3.4,2.3,5.6c0,2.2-0.7,4.1-2.2,5.6  s-3.4,2.3-5.7,2.3c-2.3,0-4.2-0.8-5.7-2.3c-1.5-1.5-2.2-3.4-2.2-5.6C316.2,133.2,316.9,131.4,318.4,129.9z M327.8,131.5  c-1-1.1-2.3-1.7-3.8-1.7s-2.8,0.6-3.8,1.7c-1,1.1-1.5,2.4-1.5,3.9c0,1.5,0.5,2.9,1.5,4s2.3,1.6,3.8,1.6s2.8-0.5,3.8-1.6  c1-1.1,1.5-2.4,1.5-4C329.4,133.9,328.9,132.6,327.8,131.5z"></path>	<path class="st1" d="M338.6,126.9v1h4.8v2.2h-4.8V143h-2.5v-12.9h-2.6v-2.2h2.6v-1c0-3.5,2.2-5.5,5.5-5.5c1.2,0,2.3,0.3,3.2,0.8  l-0.8,2.1c-0.8-0.3-1.5-0.5-2.2-0.5C339.7,123.7,338.6,124.8,338.6,126.9z"></path>	<path class="st1" d="M366.3,122.2l-7.1,13.3v7.5h-2.6v-7.5l-7-13.3h2.9l5.5,10.7l5.5-10.7H366.3z"></path>	<path class="st1" d="M368.7,141.6c-1.2-1.2-1.7-2.7-1.7-4.7v-9h2.5v8.9c0,2.6,1.4,4.1,3.9,4.1s3.9-1.6,3.9-4.1v-8.9h2.5v9  c0,3.9-2.4,6.4-6.4,6.4C371.4,143.3,369.8,142.8,368.7,141.6z"></path>	<path class="st1" d="M393.6,143l-5.8-7.1l-1.5,1.4v5.8h-2.5v-21.3h2.5v12.5l6.9-6.2h3.5l-7.1,6.3l7.3,8.7H393.6z"></path>	<path class="st1" d="M399,143v-15.1h2.4v2.3c0.9-1.8,2.3-2.6,4.4-2.6c0.6,0,1.2,0.1,1.7,0.2l-0.2,2.4c-0.5-0.2-1.1-0.3-1.5-0.3  c-2.4,0-4.2,1.7-4.2,4.9v8.1H399z"></path>	<path class="st1" d="M421,127.9h2.4V143H421v-2.2c-1.4,1.7-3.2,2.5-5.4,2.5c-2.2,0-4-0.8-5.4-2.3c-1.4-1.5-2.1-3.4-2.1-5.7  c0-2.3,0.7-4.1,2.1-5.6c1.4-1.5,3.2-2.2,5.4-2.2c2.2,0,4,0.9,5.4,2.6V127.9z M419.7,131.5c-1-1.1-2.3-1.6-3.8-1.6  c-1.6,0-2.8,0.5-3.8,1.6c-1,1.1-1.4,2.4-1.4,4c0,1.5,0.5,2.9,1.4,4c1,1.1,2.3,1.6,3.8,1.6c1.6,0,2.8-0.5,3.8-1.6  c1-1.1,1.5-2.4,1.5-4C421.2,133.9,420.7,132.6,419.7,131.5z"></path>	<path class="st1" d="M442,122.2c2.2,0,3.8,0.6,4.9,1.9c1.2,1.3,1.7,2.8,1.7,4.5c0,1.7-0.6,3.2-1.8,4.5c-1.2,1.2-2.9,1.9-5.1,1.9h-4  v8.1h-2.6v-20.8H442z M441.8,132.5c2.8,0,4.2-1.8,4.2-4c0-2.1-1.4-3.8-3.9-3.8h-4.4v7.8H441.8z"></path>	<path class="st1" d="M451.6,143v-15.1h2.4v2.3c0.9-1.8,2.3-2.6,4.4-2.6c0.6,0,1.2,0.1,1.7,0.2l-0.2,2.4c-0.5-0.2-1.1-0.3-1.5-0.3  c-2.4,0-4.2,1.7-4.2,4.9v8.1H451.6z"></path>	<path class="st1" d="M462.9,129.9c1.5-1.5,3.4-2.3,5.7-2.3c2.3,0,4.1,0.8,5.6,2.3c1.5,1.5,2.3,3.4,2.3,5.6c0,2.2-0.7,4.1-2.2,5.6  s-3.4,2.3-5.7,2.3c-2.3,0-4.2-0.8-5.7-2.3s-2.2-3.4-2.2-5.6C460.7,133.2,461.4,131.4,462.9,129.9z M472.4,131.5  c-1-1.1-2.3-1.7-3.8-1.7s-2.8,0.6-3.8,1.7c-1,1.1-1.5,2.4-1.5,3.9c0,1.5,0.5,2.9,1.5,4s2.3,1.6,3.8,1.6s2.8-0.5,3.8-1.6  s1.5-2.4,1.5-4C473.9,133.9,473.4,132.6,472.4,131.5z"></path>	<path class="st1" d="M475.5,148.8l0.5-2.1c0.7,0.3,1.3,0.4,1.8,0.4c1.7,0,2.6-1,2.6-3.1v-16h2.5v15.8c0,3.7-1.8,5.7-4.8,5.7  C477,149.4,476.1,149.2,475.5,148.8z M479.8,123.9c0-1,0.8-1.8,1.9-1.8c1,0,1.8,0.8,1.8,1.8s-0.8,1.9-1.8,1.9  C480.6,125.7,479.8,124.9,479.8,123.9z"></path>	<path class="st1" d="M501,136.5h-12.1c0.4,2.6,2.1,4.5,5.4,4.5c1.8,0,3.9-0.7,5.3-1.7l1.1,1.9c-1.5,1.2-3.9,2.1-6.4,2.1  c-5.7,0-8-4-8-7.9c0-2.3,0.7-4.1,2.1-5.6c1.4-1.5,3.2-2.2,5.5-2.2c2.1,0,3.9,0.7,5.2,2.1s2,3.2,2,5.6  C501.1,135.4,501.1,135.8,501,136.5z M488.9,134.3h9.5c-0.1-2.7-2.1-4.4-4.6-4.4C491.3,129.8,489.4,131.6,488.9,134.3z"></path>	<path class="st1" d="M505.6,141.1c-1.5-1.5-2.2-3.4-2.2-5.7c0-2.3,0.8-4.2,2.3-5.7c1.5-1.5,3.5-2.2,5.8-2.2c3,0,5.7,1.5,6.8,3.9  l-2.1,1.2c-1-1.7-2.8-2.8-4.7-2.8c-1.6,0-2.9,0.5-4,1.6s-1.6,2.4-1.6,4c0,1.6,0.5,2.9,1.5,4c1,1,2.3,1.6,3.9,1.6  c1,0,1.9-0.3,2.8-0.8c0.9-0.5,1.6-1.2,2-2l2.1,1.2c-1.2,2.3-3.9,3.9-6.9,3.9C509,143.3,507.1,142.6,505.6,141.1z"></path>	<path class="st1" d="M530.8,142.1c-1.1,0.8-2.4,1.3-3.9,1.3c-3.2,0-4.8-2-4.8-5.6v-7.7h-2.7v-2.2h2.7v-5.3h2.5v5.3h5.4v2.2h-5.4  v7.9c0,2,0.8,3,2.5,3c0.9,0,1.8-0.3,2.7-0.9L530.8,142.1z"></path>	<path class="st1" d="M531.6,140l1.9-1.3c0.9,1.6,2.3,2.4,3.7,2.4c1.7,0,2.8-1,2.8-2.2c0-0.8-0.5-1.5-1.4-2  c-0.3-0.2-0.9-0.5-1.8-0.8c-0.9-0.4-1.5-0.7-1.9-0.9c-1.5-0.8-2.3-2-2.3-3.6c0-1.2,0.4-2.2,1.3-3s2.1-1.2,3.5-1.2  c1.9,0,3.8,0.8,4.7,2.4l-1.7,1.5c-0.8-1.2-1.8-1.8-3.2-1.8c-1.4,0-2.2,0.9-2.2,1.9c0,0.8,0.4,1.4,1.2,1.8l1.7,0.8  c0.9,0.4,1.5,0.7,2,0.9c1.7,0.9,2.6,2.2,2.6,3.8c0,1.3-0.5,2.3-1.5,3.2c-1,0.9-2.3,1.3-3.8,1.3C534.9,143.3,532.8,142.2,531.6,140z  "></path>	<path class="st1" d="M560,122.2c2.2,0,3.8,0.6,4.9,1.9c1.2,1.3,1.7,2.8,1.7,4.5c0,1.7-0.6,3.2-1.8,4.5c-1.2,1.2-2.9,1.9-5.1,1.9h-4  v8.1h-2.6v-20.8H560z M559.7,132.5c2.8,0,4.2-1.8,4.2-4c0-2.1-1.4-3.8-3.9-3.8h-4.4v7.8H559.7z"></path>	<path class="st1" d="M580,127.9h2.8l-6.6,15h-1.7l-6.6-15h2.8l4.7,11.5L580,127.9z"></path>	<path class="st1" d="M594.9,142.1c-1.1,0.8-2.4,1.3-3.9,1.3c-3.2,0-4.8-2-4.8-5.6v-7.7h-2.7v-2.2h2.7v-5.3h2.5v5.3h5.4v2.2h-5.4  v7.9c0,2,0.8,3,2.5,3c0.9,0,1.8-0.3,2.7-0.9L594.9,142.1z"></path>	<path class="st1" d="M604.6,143v-20.8h2.6v18.3h11.3v2.5H604.6z"></path>	<path class="st1" d="M629.7,142.1c-1.1,0.8-2.4,1.3-3.9,1.3c-3.2,0-4.8-2-4.8-5.6v-7.7h-2.7v-2.2h2.7v-5.3h2.5v5.3h5.4v2.2h-5.4  v7.9c0,2,0.8,3,2.5,3c0.9,0,1.8-0.3,2.7-0.9L629.7,142.1z"></path>	<path class="st1" d="M643.7,121.7h2.5V143h-2.5v-2.1c-1.3,1.7-3.1,2.5-5.3,2.5c-2.2,0-4-0.8-5.5-2.3c-1.4-1.5-2.1-3.4-2.1-5.6  c0-2.2,0.7-4.1,2.2-5.6c1.4-1.5,3.2-2.3,5.4-2.3c2.2,0,4,0.9,5.4,2.6V121.7z M642.4,131.5c-1-1.1-2.3-1.6-3.8-1.6s-2.8,0.5-3.8,1.6  c-1,1.1-1.5,2.4-1.5,3.9c0,1.6,0.5,2.9,1.5,4c1,1.1,2.3,1.6,3.8,1.6s2.8-0.5,3.8-1.6c1-1.1,1.5-2.4,1.5-4  C643.9,133.9,643.4,132.6,642.4,131.5z"></path></g></svg>