<svg id="Layer_1" data-name="Layer 1" xmlns="http://www.w3.org/2000/svg" viewBox="0 0 1530 244"><defs><style>.cls-1{fill:#ef6b52;}.cls-2{fill:#252947;}.cls-3{fill:#fff;}</style></defs><circle cx="340.49" cy="67.48" r="5.52"/><circle cx="521.27" cy="67.48" r="5.52"/><path d="M223,67.08a9,9,0,0,1,2.06,6.12,8.36,8.36,0,0,1-3.4,7.17q-3.41,2.52-10.1,2.51H195.26V46.26h15.28c4,0,7.07.81,9.28,2.43a8.06,8.06,0,0,1,3.33,6.93,8.41,8.41,0,0,1-1.65,5.29A9,9,0,0,1,217,64,10.18,10.18,0,0,1,223,67.08Zm-25.1-18.52v14.6h12.51q4.81,0,7.4-1.86a6.29,6.29,0,0,0,2.59-5.47,6.22,6.22,0,0,0-2.59-5.41q-2.58-1.86-7.4-1.86Zm21.75,30.16A6.41,6.41,0,0,0,222.41,73a6.37,6.37,0,0,0-2.74-5.71c-1.84-1.22-4.53-1.83-8.09-1.83H197.92V80.58h13.66C215.14,80.58,217.83,80,219.67,78.72Z"/><path d="M234.84,81.31A12.69,12.69,0,0,1,230,76.37a15.23,15.23,0,0,1,0-14.29,12.76,12.76,0,0,1,4.89-4.94,14.6,14.6,0,0,1,14,0,12.76,12.76,0,0,1,4.89,4.94,15.23,15.23,0,0,1,0,14.29,12.69,12.69,0,0,1-4.89,4.94,14.6,14.6,0,0,1-14,0Zm12.61-2a10.43,10.43,0,0,0,3.93-4.08,13.16,13.16,0,0,0,0-11.93,10.56,10.56,0,0,0-3.93-4.08,11.57,11.57,0,0,0-11.25,0,10.54,10.54,0,0,0-3.92,4.08,13.07,13.07,0,0,0,0,11.93,10.4,10.4,0,0,0,3.92,4.08,11.5,11.5,0,0,0,11.25,0Z"/><path d="M264.67,81.31a12.78,12.78,0,0,1-4.9-4.94,15.31,15.31,0,0,1,0-14.29,12.85,12.85,0,0,1,4.9-4.94,14.6,14.6,0,0,1,14,0,12.89,12.89,0,0,1,4.89,4.94,15.23,15.23,0,0,1,0,14.29,12.83,12.83,0,0,1-4.89,4.94,14.6,14.6,0,0,1-14,0Zm12.61-2a10.47,10.47,0,0,0,3.92-4.08,13.07,13.07,0,0,0,0-11.93,10.61,10.61,0,0,0-3.92-4.08,11.57,11.57,0,0,0-11.25,0,10.56,10.56,0,0,0-3.93,4.08,13.07,13.07,0,0,0,0,11.93A10.43,10.43,0,0,0,266,79.27a11.5,11.5,0,0,0,11.25,0Z"/><path d="M300.54,68.29l-7.12,6.48v8.11H290.8V44.06h2.62V71.53l17.48-16h3.35l-11.78,11L315.4,82.88h-3.25Z"/><path d="M378.33,48.66H365.14v-2.4h29v2.4H381V82.88h-2.67Z"/><path d="M403,57a12.37,12.37,0,0,1,6.49-1.6v2.57l-.63-.06a9.08,9.08,0,0,0-7.12,2.85q-2.56,2.87-2.56,7.93V82.88h-2.62V55.57h2.51v6A9.45,9.45,0,0,1,403,57Z"/><path d="M431.13,58q2.72,2.59,2.72,7.61V82.88h-2.51V78a9.19,9.19,0,0,1-3.82,3.74,12.68,12.68,0,0,1-6,1.33A11.11,11.11,0,0,1,414.3,81a7.41,7.41,0,0,1-.2-11.17c1.62-1.42,4.21-2.12,7.77-2.12h9.36v-2.2a7.73,7.73,0,0,0-2.06-5.81,8.43,8.43,0,0,0-6.05-2,14.48,14.48,0,0,0-5.2,1,12.85,12.85,0,0,0-4.22,2.51l-1.31-1.89a14.54,14.54,0,0,1,4.92-2.85,17.91,17.91,0,0,1,6-1Q428.4,55.36,431.13,58Zm-3.48,21.43a9.62,9.62,0,0,0,3.58-4.55V69.7h-9.31c-2.69,0-4.63.49-5.84,1.46a4.92,4.92,0,0,0-1.8,4,5,5,0,0,0,2,4.22,9,9,0,0,0,5.6,1.54A10.26,10.26,0,0,0,427.65,79.38Z"/><path d="M445.78,81.31a12.7,12.7,0,0,1-4.92-4.94,15.33,15.33,0,0,1,0-14.34,12.58,12.58,0,0,1,4.92-4.92,14.41,14.41,0,0,1,7.11-1.75,13.88,13.88,0,0,1,6,1.28,10.9,10.9,0,0,1,4.36,3.74l-1.93,1.42a9.31,9.31,0,0,0-3.64-3.06,11.12,11.12,0,0,0-4.79-1,11.55,11.55,0,0,0-5.73,1.43,10.27,10.27,0,0,0-4,4.06,13.3,13.3,0,0,0,0,12,10.24,10.24,0,0,0,4,4,11.45,11.45,0,0,0,5.73,1.44,11.12,11.12,0,0,0,4.79-1,9.31,9.31,0,0,0,3.64-3.06l1.93,1.41a10.75,10.75,0,0,1-4.36,3.74,13.73,13.73,0,0,1-6,1.28A14.11,14.11,0,0,1,445.78,81.31Z"/><path d="M477.75,68.29l-7.12,6.48v8.11H468V44.06h2.61V71.53l17.48-16h3.35l-11.77,11,12.92,16.27h-3.24Z"/><path d="M575.82,72.58H554.58l-4.66,10.3h-2.87l16.84-36.62h2.67l16.85,36.62h-2.88Zm-1-2.25L565.2,49.19l-9.57,21.14Z"/><path d="M608.06,58.34q3,3,3,8.59V82.88h-2.62V67.13c0-3.06-.77-5.4-2.33-7a8.64,8.64,0,0,0-6.51-2.4A10.08,10.08,0,0,0,592,60.59a10.69,10.69,0,0,0-2.77,7.75V82.88H586.6V55.57h2.51v5.91a10.47,10.47,0,0,1,4.22-4.5A13,13,0,0,1,600,55.36,11,11,0,0,1,608.06,58.34Z"/><path d="M636.21,58q2.71,2.59,2.72,7.61V82.88h-2.51V78a9.13,9.13,0,0,1-3.82,3.74,12.68,12.68,0,0,1-6,1.33A11.08,11.08,0,0,1,619.39,81a7.4,7.4,0,0,1-.21-11.17c1.62-1.42,4.21-2.12,7.77-2.12h9.36v-2.2a7.73,7.73,0,0,0-2.06-5.81,8.43,8.43,0,0,0-6-2,14.48,14.48,0,0,0-5.2,1,13,13,0,0,0-4.22,2.51l-1.3-1.89a14.59,14.59,0,0,1,4.91-2.85,17.91,17.91,0,0,1,6-1Q633.48,55.36,636.21,58Zm-3.48,21.43a9.56,9.56,0,0,0,3.58-4.55V69.7H627c-2.69,0-4.63.49-5.84,1.46a4.92,4.92,0,0,0-1.8,4,5,5,0,0,0,2,4.22A9,9,0,0,0,627,81,10.26,10.26,0,0,0,632.73,79.38Z"/><path d="M647.09,44.06h2.62V82.88h-2.62Z"/><path d="M680.06,55.57l-14,31a12.26,12.26,0,0,1-3.63,5.13,8.07,8.07,0,0,1-4.9,1.52,9.82,9.82,0,0,1-3.53-.63,7.57,7.57,0,0,1-2.8-1.83l1.31-2a6.84,6.84,0,0,0,5.08,2.14,5.33,5.33,0,0,0,3.4-1.1,9.76,9.76,0,0,0,2.61-3.76l1.47-3.3-12.3-27.21h2.78L666.45,80l10.94-24.44Z"/><path d="M683.46,82.1a13,13,0,0,1-4.66-2.51L680,77.5a14,14,0,0,0,4.32,2.35,16.25,16.25,0,0,0,5.52.94q4.14,0,6.1-1.36a4.33,4.33,0,0,0,2-3.77,3.55,3.55,0,0,0-1.07-2.72,6.66,6.66,0,0,0-2.64-1.46,43.53,43.53,0,0,0-4.35-1,36.19,36.19,0,0,1-5.23-1.25,8.24,8.24,0,0,1-3.4-2.2,5.92,5.92,0,0,1-1.41-4.19,6.53,6.53,0,0,1,2.69-5.36c1.8-1.41,4.35-2.12,7.67-2.12a19.11,19.11,0,0,1,5.18.73A13.09,13.09,0,0,1,699.52,58l-1.2,2.09a12.63,12.63,0,0,0-3.82-1.83,15.55,15.55,0,0,0-4.4-.63,9.66,9.66,0,0,0-5.75,1.42,4.39,4.39,0,0,0-1.94,3.71,3.71,3.71,0,0,0,1.1,2.85,6.87,6.87,0,0,0,2.7,1.52,45.6,45.6,0,0,0,4.47,1.07,39.86,39.86,0,0,1,5.15,1.23,8,8,0,0,1,3.33,2.12,5.73,5.73,0,0,1,1.36,4,6.39,6.39,0,0,1-2.83,5.44q-2.82,2-8,2A19.8,19.8,0,0,1,683.46,82.1Z"/><path d="M728.3,69.86H704.81a11.41,11.41,0,0,0,1.62,5.67,10.36,10.36,0,0,0,4.11,3.85,12.29,12.29,0,0,0,5.83,1.36,12.45,12.45,0,0,0,5-1,9.57,9.57,0,0,0,3.79-2.85l1.52,1.73a11.6,11.6,0,0,1-4.48,3.29,15.57,15.57,0,0,1-13.1-.63,12.83,12.83,0,0,1-5-4.91,14.1,14.1,0,0,1-1.81-7.17,15,15,0,0,1,1.7-7.15,12.61,12.61,0,0,1,4.69-4.94,12.78,12.78,0,0,1,6.69-1.78A12.93,12.93,0,0,1,722,57.11a12.41,12.41,0,0,1,4.65,4.9,14.6,14.6,0,0,1,1.7,7.11ZM710.14,59a9.66,9.66,0,0,0-3.68,3.61,11.67,11.67,0,0,0-1.6,5.25h20.93a10.94,10.94,0,0,0-1.57-5.23A10.26,10.26,0,0,0,720.51,59a11,11,0,0,0-10.37,0Z"/><path class="cls-1" d="M904.38,220.27H864.29l59.15-92.55L868,37.4h39.1l37.62,64.83,39.1-64.83h39.84L965.5,127.72l58.16,92.55H984.31L944.47,154.2Z"/><path class="cls-1" d="M1153.82,150.24a116.76,116.76,0,0,1-1,14.36H1050.38q3.22,14.35,13.74,22.64t27.34,8.29a75.44,75.44,0,0,0,44.3-13.86l12.87,23q-25,18.57-58.4,18.56-18.32,0-32.55-5.94t-22.89-16a69,69,0,0,1-13-22.27,77.62,77.62,0,0,1-4.33-26.11q0-30.68,19.3-50.23,19.55-20,50.49-20,29,0,47.76,18.31Q1153.82,119.06,1153.82,150.24Zm-66.56-40.58q-14.12,0-23.88,8.16t-13,22.28h71.77q-2-14.11-11.51-22.28T1087.26,109.66Z"/><path class="cls-1" d="M1203.56,220.27h-32.17V85.9h31.68v18.81a38.57,38.57,0,0,1,16.58-16.33q11.13-5.94,25.73-5.94,22,0,37.37,14.6t15.34,41.32v81.91h-32.42v-73q0-16.58-7.92-26t-21.52-9.4q-14.36,0-23.51,10t-9.16,25.86Z"/><path class="cls-1" d="M1338.67,69.82a20.59,20.59,0,0,1-14.84-5.69,19.35,19.35,0,0,1-5.94-14.6A19.21,19.21,0,0,1,1324,35.05a20.47,20.47,0,0,1,14.72-5.82A19.87,19.87,0,0,1,1359,49.53a19.59,19.59,0,0,1-5.81,14.6A19.89,19.89,0,0,1,1338.67,69.82Zm15.84,16.08V220.27h-32.42V85.9Z"/><path class="cls-1" d="M1482.44,103V85.9h30.69V220.27h-30.69V203.69q-17.57,19.8-43.8,19.8-29,0-47.76-20.29t-18.8-50.73q0-30.43,18.8-50,19.06-19.78,47.76-19.79Q1464.38,82.69,1482.44,103Zm.75,50q0-17.07-11.14-28.95t-28.46-11.88q-17.33,0-28.46,11.88a41.87,41.87,0,0,0-10.88,29q0,17.08,10.88,29.21Q1426.28,194,1443.59,194t28.46-11.87Q1483.2,170.29,1483.19,153Z"/><path class="cls-2" d="M330.48,214.65H305.13V108.77h25v14.82a30.4,30.4,0,0,1,13.06-12.87A42.45,42.45,0,0,1,363.43,106q17.35,0,29.45,11.51T405,150.11v64.54H379.42V157.13q0-13.06-6.24-20.48t-17-7.41q-11.33,0-18.53,7.9t-7.21,20.38Z"/><path class="cls-2" d="M448.84,214.65H423.49V108.77h25v14.82a30.46,30.46,0,0,1,13.06-12.87A42.45,42.45,0,0,1,481.79,106q17.35,0,29.45,11.51t12.09,32.56v64.54H497.78V157.13q0-13.06-6.24-20.48t-17-7.41q-11.31,0-18.53,7.9t-7.21,20.38Z"/><path class="cls-2" d="M643.64,159.47a91.93,91.93,0,0,1-.78,11.31H562.13A30.34,30.34,0,0,0,573,188.62q8.29,6.54,21.55,6.53a59.37,59.37,0,0,0,34.9-10.92l10.14,18.14Q619.85,217,593.52,217a66.09,66.09,0,0,1-25.64-4.68,47.5,47.5,0,0,1-18-12.57,54.18,54.18,0,0,1-10.24-17.55,61.17,61.17,0,0,1-3.41-20.58q0-24.17,15.21-39.58,15.39-15.8,39.77-15.79,22.82,0,37.64,14.43Q643.64,134.91,643.64,159.47Zm-52.46-32q-11.11,0-18.81,6.43t-10.24,17.55h56.55q-1.56-11.11-9.07-17.55T591.18,127.49Z"/><path class="cls-2" d="M707.79,217q-24.37,0-40.36-15.6-15.61-15.6-15.6-39.78t15.79-39.78q16-15.58,41-15.59a57.33,57.33,0,0,1,29.54,7.7,47.85,47.85,0,0,1,19.6,21.35L737,146.4Q726.9,129.64,709,129.63q-13.65,0-22.81,9.17-9,9-9,22.81,0,13.66,8.77,22.82t22.23,9.16A32.64,32.64,0,0,0,724.85,189a29.81,29.81,0,0,0,11.8-12l20.67,12.09a51.62,51.62,0,0,1-20.18,20.38A58.25,58.25,0,0,1,707.79,217Z"/><path class="cls-2" d="M835.9,188.52l8,19.89q-12.48,8.78-30.62,8.78-36.27,0-36.27-41.34V130.22H759.46V108.77H777.4V71.33h25.16v37.44h35.49v21.45H802.56v44.65Q802.56,194,818,194A34.17,34.17,0,0,0,835.9,188.52Z"/><path class="cls-2" d="M104.57,215.41q-31.59,0-52.84-20.47Q30.48,174.27,30.48,141.7q0-32.76,21.64-53.82Q74,66.64,105,66.63a80.12,80.12,0,0,1,35.79,8.19Q157.42,83,167,96.85l-18.13,17.36q-17.55-21.84-42.71-21.84-20.28,0-34.32,14Q58,120.65,58,141.7q0,20.87,13.65,34.52t34.32,13.65q26.52,0,43.48-21.84L168,184.8A75,75,0,0,1,140.84,207,80,80,0,0,1,104.57,215.41Z"/><path class="cls-3" d="M281.54,134.71a3.68,3.68,0,0,0-.15-.35,57.07,57.07,0,0,0-49.94-33.45,57,57,0,0,0-30.82,10.89,53.9,53.9,0,0,0-16.08,20,28.83,28.83,0,0,0-2.37,6.09c-1.24,4.55-1.88,11,1.32,17.27,5.24,10.28,18.66,15.71,31.85,11.69-.07,0-11.27,5.94-15.93,14.86-.38.72-5,10-1.08,18.79a.61.61,0,0,0,.07.17c3.58,7.74,11.78,10.58,15.87,11.83A52.64,52.64,0,0,0,255,209l.39-.18A57.22,57.22,0,0,0,284.2,174c.06-.19.12-.37.16-.56.11-.42.23-.83.34-1.25a.13.13,0,0,1,0-.06c.05-.17.09-.33.13-.5s.12-.46.17-.69q.15-.57.27-1.14c0-.1,0-.2.05-.29s.09-.47.13-.7.09-.47.13-.7a.88.88,0,0,1,0-.17c.1-.63.2-1.24.3-1.88,0-.31.09-.63.12-.95s.07-.63.11-1,.05-.4.06-.59v0a1.5,1.5,0,0,0,0-.22c0-.29,0-.58.08-.86a1.34,1.34,0,0,0,0-.2c0-.15,0-.31,0-.46,0-.41.05-.84.07-1.27v-.06c0-.12,0-.26,0-.39a.41.41,0,0,1,0-.11h0c0-.1,0-.21,0-.31a.34.34,0,0,0,0-.1v-.43c0-.24,0-.5,0-.74v-.66A56.63,56.63,0,0,0,281.54,134.71Zm-39.37,14.54c0,.26-.09.53-.13.78l-.32.5L236.31,159q-6.18,9.65-12.35,19.31a4.75,4.75,0,0,1-.63.79,2.69,2.69,0,0,1-.5.39,2.3,2.3,0,0,1-.6.25l-.17,0a1.13,1.13,0,0,1-.18,0l-.3,0-.59-.11-.31-.18a3,3,0,0,1-.49-.45c-.06-.09-.13-.18-.18-.27a3.56,3.56,0,0,1-.28-.59c0-.11-.07-.23-.1-.34s0-.23-.07-.34c-.19-.92-.38-1.85-.58-2.78-.38-1.86-.78-3.71-1.17-5.57l-.57-2.79a3.37,3.37,0,0,0-.1-.34,1.88,1.88,0,0,0-.12-.3,1.51,1.51,0,0,0-.15-.28,2.35,2.35,0,0,0-.58-.6,1.88,1.88,0,0,0-.23-.16l-2.49-1.51c-2.5-1.51-5-3-7.48-4.56a2.73,2.73,0,0,1-.53-.4,2.32,2.32,0,0,1-.38-.46,2.09,2.09,0,0,1-.24-1.65,2.26,2.26,0,0,1,1.88-1.7l17.06-4,3.77-.88,3.12-.75,8.24-2a3.14,3.14,0,0,1,.67-.08,2.22,2.22,0,0,1,.37,0,2.59,2.59,0,0,1,.4.09l.15.06a1.31,1.31,0,0,1,.27.12,1.6,1.6,0,0,1,.32.21.05.05,0,0,1,0,0,1.6,1.6,0,0,1,.27.25,2,2,0,0,1,.24.33,2.15,2.15,0,0,1,.19.37,2.58,2.58,0,0,1,.13.42c0,.2.08.4.11.62Z"/><path class="cls-1" d="M216.06,164.67a1.88,1.88,0,0,1,.23.16l-.23-.15-2.49-1.52Z"/><path class="cls-1" d="M219.56,177.49c0,.11,0,.23.07.34a3.38,3.38,0,0,1-.08-.34c-.19-.93-.37-1.85-.57-2.78C219.18,175.64,219.37,176.57,219.56,177.49Z"/><path class="cls-1" d="M221.88,179.81a1.13,1.13,0,0,0,.18,0l-.18,0-.3,0Z"/><path class="cls-1" d="M227.65,149.48l3.12-.74-3.12.75-3.77.88Z"/><path class="cls-1" d="M286.49,158.34a54,54,0,0,1-2.13,15.07A58,58,0,0,0,286.49,158.34Z"/><g id="_928arE.tif" data-name="928arE.tif"><path class="cls-1" d="M216.06,164.67a1.88,1.88,0,0,1,.23.16l-.23-.15-2.49-1.52Z"/><path class="cls-1" d="M219.56,177.49c0,.11,0,.23.07.34a3.38,3.38,0,0,1-.08-.34c-.19-.93-.37-1.85-.57-2.78C219.18,175.64,219.37,176.57,219.56,177.49Z"/><path class="cls-1" d="M221.88,179.81a1.13,1.13,0,0,0,.18,0l-.18,0-.3,0Z"/><path class="cls-1" d="M227.65,149.48l3.12-.74-3.12.75-3.77.88Z"/></g><path class="cls-1" d="M284.64,144.28a53.26,53.26,0,0,0-3.1-9.57,3.68,3.68,0,0,0-.15-.35,57.07,57.07,0,0,0-49.94-33.45,57,57,0,0,0-30.82,10.89,53.9,53.9,0,0,0-16.08,20,28.83,28.83,0,0,0-2.37,6.09c-1.24,4.55-1.88,11,1.32,17.27,5.24,10.28,18.66,15.71,31.85,11.69-.07,0-11.27,5.94-15.93,14.86-.38.72-5,10-1.08,18.79a.61.61,0,0,0,.07.17c3.58,7.74,11.78,10.58,15.87,11.83a56.88,56.88,0,0,0,16.14,2.56h.46A51.39,51.39,0,0,0,255,209l.39-.18a60.6,60.6,0,0,0,19.42-16.5c.15-.33.31-.66.47-1A54.07,54.07,0,0,0,284.2,174c.06-.19.12-.37.16-.56.11-.42.23-.83.34-1.25a.13.13,0,0,1,0-.06l.12-.5q.23-.91.42-1.83l.21-1c0-.23.09-.47.13-.7a.88.88,0,0,1,0-.17c.1-.63.2-1.24.3-1.88,0-.31.09-.63.12-.95s.07-.63.11-1,.05-.4.06-.59v0a1.5,1.5,0,0,0,0-.22c0-.29,0-.58.08-.86a1.34,1.34,0,0,0,0-.2c0-.15,0-.31,0-.46,0-.41.05-.84.07-1.27v-.06c0-.12,0-.26,0-.39a.41.41,0,0,1,0-.11h0c0-.1,0-.21,0-.31s0-.21,0-.32v-.21c0-.24,0-.5,0-.74v-.66A53.43,53.43,0,0,0,284.64,144.28Zm-60.68,34a4.75,4.75,0,0,1-.63.79,2.69,2.69,0,0,1-.5.39,2.3,2.3,0,0,1-.6.25l-.17,0a1.13,1.13,0,0,1-.18,0l-.3,0-.59-.11-.31-.18a2.65,2.65,0,0,1-.49-.45c-.06-.09-.13-.18-.18-.27a3.56,3.56,0,0,1-.28-.59c0-.11-.07-.23-.1-.34s0-.23-.07-.34c-.19-.92-.38-1.85-.58-2.78-.38-1.86-.78-3.71-1.17-5.57-.2-.93-.39-1.86-.58-2.79a3.37,3.37,0,0,0-.09-.34,1.88,1.88,0,0,0-.12-.3,1.51,1.51,0,0,0-.15-.28,2.35,2.35,0,0,0-.58-.6,1.88,1.88,0,0,0-.23-.16l-2.49-1.51c-2.5-1.51-5-3-7.48-4.56a2.73,2.73,0,0,1-.53-.4,2.12,2.12,0,0,1-.62-2.11,2.26,2.26,0,0,1,1.88-1.7l17.06-4,3.77-.88,3.12-.75,8.24-2a3.14,3.14,0,0,1,.67-.08,2.22,2.22,0,0,1,.37,0,2.59,2.59,0,0,1,.4.09l.15.06.27.12a1.26,1.26,0,0,1,.32.21.05.05,0,0,1,0,0,1.6,1.6,0,0,1,.27.25,1.55,1.55,0,0,1,.24.33,1.62,1.62,0,0,1,.19.37,1.88,1.88,0,0,1,.14.42c0,.2.07.41.1.62h0c0,.26-.09.53-.13.78l-.31.5L236.31,159Q230.13,168.65,224,178.31Z"/><path class="cls-3" d="M216.06,164.67a1.88,1.88,0,0,1,.23.16l-.23-.15-2.49-1.52Z"/><path class="cls-3" d="M219.56,177.49c0,.11,0,.23.07.34a3.38,3.38,0,0,1-.08-.34c-.19-.93-.37-1.85-.57-2.78C219.18,175.64,219.37,176.57,219.56,177.49Z"/><path class="cls-3" d="M221.88,179.81a1.13,1.13,0,0,0,.18,0l-.18,0-.3,0Z"/><path class="cls-3" d="M227.65,149.48l3.12-.74-3.12.75-3.77.88Z"/></svg>